<?xml version="1.0" encoding="UTF-8" standalone="no"?>
<!DOCTYPE svg PUBLIC "-//W3C//DTD SVG 1.1//EN"
 "http://www.w3.org/Graphics/SVG/1.1/DTD/svg11.dtd">
<!-- Generated by graphviz version 2.43.0 (0)
 -->
<!-- Title: dependency&#45;cruiser output Pages: 1 -->
<svg width="307pt" height="227pt"
 viewBox="0.00 0.00 307.08 226.60" xmlns="http://www.w3.org/2000/svg" xmlns:xlink="http://www.w3.org/1999/xlink">
<g id="graph0" class="graph" transform="scale(1 1) rotate(0) translate(4 222.6)">
<title>dependency&#45;cruiser output</title>
<polygon fill="white" stroke="transparent" points="-4,4 -4,-222.6 303.08,-222.6 303.08,4 -4,4"/>
<g id="clust1" class="cluster">
<title>cluster_@tensorflow&#45;models</title>
<path fill="#ffffff" stroke="black" stroke-width="2" d="M160.02,-84.5C160.02,-84.5 279.08,-84.5 279.08,-84.5 285.08,-84.5 291.08,-90.5 291.08,-96.5 291.08,-96.5 291.08,-123.5 291.08,-123.5 291.08,-129.5 285.08,-135.5 279.08,-135.5 279.08,-135.5 160.02,-135.5 160.02,-135.5 154.02,-135.5 148.02,-129.5 148.02,-123.5 148.02,-123.5 148.02,-96.5 148.02,-96.5 148.02,-90.5 154.02,-84.5 160.02,-84.5"/>
<text text-anchor="middle" x="219.55" y="-124.3" font-family="Helvetica,sans-Serif" font-weight="bold" font-size="9.00">@tensorflow&#45;models</text>
</g>
<g id="clust2" class="cluster">
<title>cluster_@tensorflow</title>
<path fill="#ffffff" stroke="black" stroke-width="2" d="M196.55,-25.5C196.55,-25.5 242.55,-25.5 242.55,-25.5 248.55,-25.5 254.55,-31.5 254.55,-37.5 254.55,-37.5 254.55,-64.5 254.55,-64.5 254.55,-70.5 248.55,-76.5 242.55,-76.5 242.55,-76.5 196.55,-76.5 196.55,-76.5 190.55,-76.5 184.55,-70.5 184.55,-64.5 184.55,-64.5 184.55,-37.5 184.55,-37.5 184.55,-31.5 190.55,-25.5 196.55,-25.5"/>
<text text-anchor="middle" x="219.55" y="-65.3" font-family="Helvetica,sans-Serif" font-weight="bold" font-size="9.00">@tensorflow</text>
</g>
<g id="clust3" class="cluster">
<title>cluster_public</title>
<path fill="#ffffff" stroke="black" stroke-width="2" d="M74,-30.5C74,-30.5 128.02,-30.5 128.02,-30.5 134.02,-30.5 140.02,-36.5 140.02,-42.5 140.02,-42.5 140.02,-156.5 140.02,-156.5 140.02,-162.5 134.02,-168.5 128.02,-168.5 128.02,-168.5 74,-168.5 74,-168.5 68,-168.5 62,-162.5 62,-156.5 62,-156.5 62,-42.5 62,-42.5 62,-36.5 68,-30.5 74,-30.5"/>
<text text-anchor="middle" x="101.01" y="-157.3" font-family="Helvetica,sans-Serif" font-weight="bold" font-size="9.00">public</text>
</g>
<!-- @tensorflow&#45;models/universal&#45;sentence&#45;encoder -->
<g id="node1" class="node">
<title>@tensorflow&#45;models/universal&#45;sentence&#45;encoder</title>
<path fill="#ffffcc" stroke="red" d="M277.44,-110C277.44,-110 161.65,-110 161.65,-110 158.82,-110 155.98,-107.17 155.98,-104.33 155.98,-104.33 155.98,-98.67 155.98,-98.67 155.98,-95.83 158.82,-93 161.65,-93 161.65,-93 277.44,-93 277.44,-93 280.28,-93 283.11,-95.83 283.11,-98.67 283.11,-98.67 283.11,-104.33 283.11,-104.33 283.11,-107.17 280.28,-110 277.44,-110"/>
<text text-anchor="middle" x="219.55" y="-98.8" font-family="Helvetica,sans-Serif" font-size="9.00" fill="red">universal&#45;sentence&#45;encoder</text>
</g>
<!-- @tensorflow/tfjs&#45;node -->
<g id="node2" class="node">
<title>@tensorflow/tfjs&#45;node</title>
<path fill="#ffffcc" stroke="red" d="M240.88,-51C240.88,-51 198.21,-51 198.21,-51 195.38,-51 192.55,-48.17 192.55,-45.33 192.55,-45.33 192.55,-39.67 192.55,-39.67 192.55,-36.83 195.38,-34 198.21,-34 198.21,-34 240.88,-34 240.88,-34 243.71,-34 246.55,-36.83 246.55,-39.67 246.55,-39.67 246.55,-45.33 246.55,-45.33 246.55,-48.17 243.71,-51 240.88,-51"/>
<text text-anchor="middle" x="219.55" y="-39.8" font-family="Helvetica,sans-Serif" font-size="9.00" fill="red">tfjs&#45;node</text>
</g>
<!-- child_process -->
<g id="node3" class="node">
<title>child_process</title>
<path fill="#ffffcc" stroke="grey" d="M249.41,-211C249.41,-211 189.68,-211 189.68,-211 186.85,-211 184.02,-208.17 184.02,-205.33 184.02,-205.33 184.02,-199.67 184.02,-199.67 184.02,-196.83 186.85,-194 189.68,-194 189.68,-194 249.41,-194 249.41,-194 252.24,-194 255.07,-196.83 255.07,-199.67 255.07,-199.67 255.07,-205.33 255.07,-205.33 255.07,-208.17 252.24,-211 249.41,-211"/>
<text text-anchor="middle" x="219.55" y="-199.8" font-family="Helvetica,sans-Serif" font-size="9.00" fill="grey">child_process</text>
</g>
<!-- express -->
<g id="node4" class="node">
<title>express</title>
<path fill="#ffffcc" stroke="red" d="M122.34,-194C122.34,-194 79.67,-194 79.67,-194 76.84,-194 74.01,-191.17 74.01,-188.33 74.01,-188.33 74.01,-182.67 74.01,-182.67 74.01,-179.83 76.84,-177 79.67,-177 79.67,-177 122.34,-177 122.34,-177 125.17,-177 128.01,-179.83 128.01,-182.67 128.01,-182.67 128.01,-188.33 128.01,-188.33 128.01,-191.17 125.17,-194 122.34,-194"/>
<text text-anchor="middle" x="101.01" y="-182.8" font-family="Helvetica,sans-Serif" font-size="9.00" fill="red">express</text>
</g>
<!-- fs -->
<g id="node5" class="node">
<title>fs</title>
<path fill="#ffffcc" stroke="grey" d="M240.88,-161C240.88,-161 198.21,-161 198.21,-161 195.38,-161 192.55,-158.17 192.55,-155.33 192.55,-155.33 192.55,-149.67 192.55,-149.67 192.55,-146.83 195.38,-144 198.21,-144 198.21,-144 240.88,-144 240.88,-144 243.71,-144 246.55,-146.83 246.55,-149.67 246.55,-149.67 246.55,-155.33 246.55,-155.33 246.55,-158.17 243.71,-161 240.88,-161"/>
<text text-anchor="middle" x="219.55" y="-149.8" font-family="Helvetica,sans-Serif" font-size="9.00" fill="grey">fs</text>
</g>
<!-- mongodb -->
<g id="node6" class="node">
<title>mongodb</title>
<path fill="#ffffcc" stroke="red" d="M240.88,-17C240.88,-17 198.21,-17 198.21,-17 195.38,-17 192.55,-14.17 192.55,-11.33 192.55,-11.33 192.55,-5.67 192.55,-5.67 192.55,-2.83 195.38,0 198.21,0 198.21,0 240.88,0 240.88,0 243.71,0 246.55,-2.83 246.55,-5.67 246.55,-5.67 246.55,-11.33 246.55,-11.33 246.55,-14.17 243.71,-17 240.88,-17"/>
<text text-anchor="middle" x="219.55" y="-5.8" font-family="Helvetica,sans-Serif" font-size="9.00" fill="red">mongodb</text>
</g>
<!-- public/read&#45;files.js -->
<g id="node7" class="node">
<title>public/read&#45;files.js</title>
<g id="a_node7"><a xlink:href="public/read-files.js" xlink:title="read&#45;files.js">
<path fill="#ffffcc" stroke="black" d="M126.36,-114C126.36,-114 75.66,-114 75.66,-114 72.83,-114 69.99,-111.17 69.99,-108.33 69.99,-108.33 69.99,-102.67 69.99,-102.67 69.99,-99.83 72.83,-97 75.66,-97 75.66,-97 126.36,-97 126.36,-97 129.19,-97 132.02,-99.83 132.02,-102.67 132.02,-102.67 132.02,-108.33 132.02,-108.33 132.02,-111.17 129.19,-114 126.36,-114"/>
<text text-anchor="middle" x="101.01" y="-102.8" font-family="Helvetica,sans-Serif" font-size="9.00">read&#45;files.js</text>
</a>
</g>
</g>
<!-- public/read&#45;files.js&#45;&gt;fs -->
<g id="edge1" class="edge">
<title>public/read&#45;files.js&#45;&gt;fs</title>
<path fill="none" stroke="#000000" stroke-dasharray="5,2" stroke-opacity="0.200000" d="M130.87,-114.03C134.2,-115.81 137.35,-117.95 140.02,-120.5 146.34,-126.56 141.18,-133.03 148.02,-138.5 158.66,-147.01 173.05,-150.8 186.05,-152.36"/>
<polygon fill="#000000" fill-opacity="0.200000" stroke="#000000" stroke-opacity="0.200000" points="186.13,-154.48 192.3,-152.96 186.53,-150.3 186.13,-154.48"/>
</g>
<!-- public/shell.js -->
<g id="node8" class="node">
<title>public/shell.js</title>
<g id="a_node8"><a xlink:href="public/shell.js" xlink:title="shell.js">
<path fill="#ffffcc" stroke="black" d="M122.34,-143C122.34,-143 79.67,-143 79.67,-143 76.84,-143 74.01,-140.17 74.01,-137.33 74.01,-137.33 74.01,-131.67 74.01,-131.67 74.01,-128.83 76.84,-126 79.67,-126 79.67,-126 122.34,-126 122.34,-126 125.17,-126 128.01,-128.83 128.01,-131.67 128.01,-131.67 128.01,-137.33 128.01,-137.33 128.01,-140.17 125.17,-143 122.34,-143"/>
<text text-anchor="middle" x="101.01" y="-131.8" font-family="Helvetica,sans-Serif" font-size="9.00">shell.js</text>
</a>
</g>
</g>
<!-- public/shell.js&#45;&gt;child_process -->
<g id="edge2" class="edge">
<title>public/shell.js&#45;&gt;child_process</title>
<path fill="none" stroke="#000000" stroke-dasharray="5,2" stroke-opacity="0.200000" d="M113.01,-143.16C122.12,-150.14 135.55,-160 148.02,-167.5 162.67,-176.31 179.85,-184.87 193.59,-191.32"/>
<polygon fill="#000000" fill-opacity="0.200000" stroke="#000000" stroke-opacity="0.200000" points="192.92,-193.33 199.24,-193.95 194.69,-189.52 192.92,-193.33"/>
</g>
<!-- public/tfjs.js -->
<g id="node9" class="node">
<title>public/tfjs.js</title>
<g id="a_node9"><a xlink:href="public/tfjs.js" xlink:title="tfjs.js">
<path fill="#ffffcc" stroke="black" d="M122.34,-85C122.34,-85 79.67,-85 79.67,-85 76.84,-85 74.01,-82.17 74.01,-79.33 74.01,-79.33 74.01,-73.67 74.01,-73.67 74.01,-70.83 76.84,-68 79.67,-68 79.67,-68 122.34,-68 122.34,-68 125.17,-68 128.01,-70.83 128.01,-73.67 128.01,-73.67 128.01,-79.33 128.01,-79.33 128.01,-82.17 125.17,-85 122.34,-85"/>
<text text-anchor="middle" x="101.01" y="-73.8" font-family="Helvetica,sans-Serif" font-size="9.00">tfjs.js</text>
</a>
</g>
</g>
<!-- public/tfjs.js&#45;&gt;@tensorflow&#45;models/universal&#45;sentence&#45;encoder -->
<g id="edge3" class="edge">
<title>public/tfjs.js&#45;&gt;@tensorflow&#45;models/universal&#45;sentence&#45;encoder</title>
<path fill="none" stroke="#000000" stroke-width="2" stroke-opacity="0.200000" d="M128.16,-82.11C141.31,-84.93 157.64,-88.43 172.78,-91.68"/>
<polygon fill="#000000" fill-opacity="0.200000" stroke="#000000" stroke-width="2" stroke-opacity="0.200000" points="172.44,-93.76 178.74,-92.96 173.32,-89.65 172.44,-93.76"/>
</g>
<!-- public/tfjs.js&#45;&gt;@tensorflow/tfjs&#45;node -->
<g id="edge4" class="edge">
<title>public/tfjs.js&#45;&gt;@tensorflow/tfjs&#45;node</title>
<path fill="none" stroke="#000000" stroke-width="2" stroke-opacity="0.200000" d="M128.16,-68.87C145.4,-63.84 168.11,-57.22 186.44,-51.87"/>
<polygon fill="#000000" fill-opacity="0.200000" stroke="#000000" stroke-width="2" stroke-opacity="0.200000" points="187.31,-53.8 192.48,-50.1 186.13,-49.77 187.31,-53.8"/>
</g>
<!-- public/use&#45;db.js -->
<g id="node10" class="node">
<title>public/use&#45;db.js</title>
<g id="a_node10"><a xlink:href="public/use-db.js" xlink:title="use&#45;db.js">
<path fill="#ffffcc" stroke="black" d="M122.34,-56C122.34,-56 79.67,-56 79.67,-56 76.84,-56 74.01,-53.17 74.01,-50.33 74.01,-50.33 74.01,-44.67 74.01,-44.67 74.01,-41.83 76.84,-39 79.67,-39 79.67,-39 122.34,-39 122.34,-39 125.17,-39 128.01,-41.83 128.01,-44.67 128.01,-44.67 128.01,-50.33 128.01,-50.33 128.01,-53.17 125.17,-56 122.34,-56"/>
<text text-anchor="middle" x="101.01" y="-44.8" font-family="Helvetica,sans-Serif" font-size="9.00">use&#45;db.js</text>
</a>
</g>
</g>
<!-- public/use&#45;db.js&#45;&gt;mongodb -->
<g id="edge5" class="edge">
<title>public/use&#45;db.js&#45;&gt;mongodb</title>
<path fill="none" stroke="#000000" stroke-width="2" stroke-opacity="0.200000" d="M115.19,-38.94C124.13,-33.5 136.39,-26.7 148.02,-22.5 160.11,-18.13 173.9,-15.01 186.05,-12.84"/>
<polygon fill="#000000" fill-opacity="0.200000" stroke="#000000" stroke-width="2" stroke-opacity="0.200000" points="186.68,-14.86 192.24,-11.79 185.98,-10.72 186.68,-14.86"/>
</g>
<!-- server.js -->
<g id="node11" class="node">
<title>server.js</title>
<g id="a_node11"><a xlink:href="server.js" xlink:title="server.js">
<path fill="#ffffcc" stroke="black" d="M48.33,-128C48.33,-128 5.67,-128 5.67,-128 2.83,-128 0,-125.17 0,-122.33 0,-122.33 0,-116.67 0,-116.67 0,-113.83 2.83,-111 5.67,-111 5.67,-111 48.33,-111 48.33,-111 51.17,-111 54,-113.83 54,-116.67 54,-116.67 54,-122.33 54,-122.33 54,-125.17 51.17,-128 48.33,-128"/>
<text text-anchor="middle" x="27" y="-116.8" font-family="Helvetica,sans-Serif" font-size="9.00">server.js</text>
</a>
</g>
</g>
<!-- server.js&#45;&gt;child_process -->
<g id="edge10" class="edge">
<title>server.js&#45;&gt;child_process</title>
<path fill="none" stroke="#000000" stroke-dasharray="5,2" stroke-opacity="0.200000" d="M28.64,-128.01C30.45,-145.19 37.21,-183.79 62,-200.5 97.65,-224.53 149,-219.63 183.04,-212.38"/>
<polygon fill="#000000" fill-opacity="0.200000" stroke="#000000" stroke-opacity="0.200000" points="183.8,-214.36 189.19,-211 182.88,-210.26 183.8,-214.36"/>
</g>
<!-- server.js&#45;&gt;express -->
<g id="edge11" class="edge">
<title>server.js&#45;&gt;express</title>
<path fill="none" stroke="#000000" stroke-width="2" stroke-opacity="0.200000" d="M31.53,-128.1C36.65,-139.53 47.15,-159.68 62,-171.5 63.98,-173.08 66.16,-174.49 68.43,-175.75"/>
<polygon fill="#000000" fill-opacity="0.200000" stroke="#000000" stroke-width="2" stroke-opacity="0.200000" points="67.57,-177.66 73.88,-178.42 69.42,-173.89 67.57,-177.66"/>
</g>
<!-- server.js&#45;&gt;public/read&#45;files.js -->
<g id="edge6" class="edge">
<title>server.js&#45;&gt;public/read&#45;files.js</title>
<path fill="none" stroke="#000000" stroke-width="2" stroke-opacity="0.200000" d="M54.4,-114.37C57.36,-113.79 60.41,-113.2 63.46,-112.61"/>
<polygon fill="#000000" fill-opacity="0.200000" stroke="#000000" stroke-width="2" stroke-opacity="0.200000" points="64.22,-114.6 69.71,-111.39 63.42,-110.47 64.22,-114.6"/>
</g>
<!-- server.js&#45;&gt;public/shell.js -->
<g id="edge7" class="edge">
<title>server.js&#45;&gt;public/shell.js</title>
<path fill="none" stroke="#000000" stroke-width="2" stroke-opacity="0.200000" d="M54.4,-125C58.71,-125.9 63.21,-126.83 67.64,-127.76"/>
<polygon fill="#000000" fill-opacity="0.200000" stroke="#000000" stroke-width="2" stroke-opacity="0.200000" points="67.3,-129.83 73.61,-129 68.16,-125.72 67.3,-129.83"/>
</g>
<!-- server.js&#45;&gt;public/tfjs.js -->
<g id="edge8" class="edge">
<title>server.js&#45;&gt;public/tfjs.js</title>
<path fill="none" stroke="#000000" stroke-width="2" stroke-opacity="0.200000" d="M36.93,-110.81C43.47,-104.8 52.78,-96.93 62,-91.5 64.27,-90.16 66.68,-88.9 69.14,-87.71"/>
<polygon fill="#000000" fill-opacity="0.200000" stroke="#000000" stroke-width="2" stroke-opacity="0.200000" points="70.34,-89.48 74.94,-85.1 68.61,-85.65 70.34,-89.48"/>
</g>
<!-- server.js&#45;&gt;public/use&#45;db.js -->
<g id="edge9" class="edge">
<title>server.js&#45;&gt;public/use&#45;db.js</title>
<path fill="none" stroke="#000000" stroke-width="2" stroke-opacity="0.200000" d="M31.03,-110.96C35.81,-98.65 46.2,-75.93 62,-62.5 63.95,-60.85 66.1,-59.36 68.35,-58.03"/>
<polygon fill="#000000" fill-opacity="0.200000" stroke="#000000" stroke-width="2" stroke-opacity="0.200000" points="69.43,-59.84 73.78,-55.19 67.49,-56.11 69.43,-59.84"/>
</g>
</g>
</svg>
