<?xml version="1.0" encoding="UTF-8" standalone="no"?>
<!DOCTYPE svg PUBLIC "-//W3C//DTD SVG 1.1//EN"
 "http://www.w3.org/Graphics/SVG/1.1/DTD/svg11.dtd">
<!-- Generated by graphviz version 2.43.0 (0)
 -->
<!-- Title: dependency&#45;cruiser output Pages: 1 -->
<svg width="227pt" height="167pt"
 viewBox="0.00 0.00 227.04 167.09" xmlns="http://www.w3.org/2000/svg" xmlns:xlink="http://www.w3.org/1999/xlink">
<g id="graph0" class="graph" transform="scale(1 1) rotate(0) translate(4 163.09)">
<title>dependency&#45;cruiser output</title>
<polygon fill="white" stroke="transparent" points="-4,4 -4,-163.09 223.04,-163.09 223.04,4 -4,4"/>
<g id="clust1" class="cluster">
<title>cluster_public</title>
<path fill="#ffffff" stroke="black" stroke-width="2" d="M74,-8C74,-8 128.02,-8 128.02,-8 134.02,-8 140.02,-14 140.02,-20 140.02,-20 140.02,-134 140.02,-134 140.02,-140 134.02,-146 128.02,-146 128.02,-146 74,-146 74,-146 68,-146 62,-140 62,-134 62,-134 62,-20 62,-20 62,-14 68,-8 74,-8"/>
<text text-anchor="middle" x="101.01" y="-134.8" font-family="Helvetica,sans-Serif" font-weight="bold" font-size="9.00">public</text>
</g>
<!-- child_process -->
<g id="node1" class="node">
<title>child_process</title>
<path fill="#ffffcc" stroke="grey" d="M213.39,-144.5C213.39,-144.5 153.67,-144.5 153.67,-144.5 150.83,-144.5 148,-141.67 148,-138.83 148,-138.83 148,-133.17 148,-133.17 148,-130.33 150.83,-127.5 153.67,-127.5 153.67,-127.5 213.39,-127.5 213.39,-127.5 216.22,-127.5 219.06,-130.33 219.06,-133.17 219.06,-133.17 219.06,-138.83 219.06,-138.83 219.06,-141.67 216.22,-144.5 213.39,-144.5"/>
<text text-anchor="middle" x="183.53" y="-133.3" font-family="Helvetica,sans-Serif" font-size="9.00" fill="grey">child_process</text>
</g>
<!-- fs -->
<g id="node2" class="node">
<title>fs</title>
<path fill="#ffffcc" stroke="grey" d="M204.86,-91.5C204.86,-91.5 162.2,-91.5 162.2,-91.5 159.36,-91.5 156.53,-88.67 156.53,-85.83 156.53,-85.83 156.53,-80.17 156.53,-80.17 156.53,-77.33 159.36,-74.5 162.2,-74.5 162.2,-74.5 204.86,-74.5 204.86,-74.5 207.7,-74.5 210.53,-77.33 210.53,-80.17 210.53,-80.17 210.53,-85.83 210.53,-85.83 210.53,-88.67 207.7,-91.5 204.86,-91.5"/>
<text text-anchor="middle" x="183.53" y="-80.3" font-family="Helvetica,sans-Serif" font-size="9.00" fill="grey">fs</text>
</g>
<!-- public/read&#45;files.js -->
<g id="node3" class="node">
<title>public/read&#45;files.js</title>
<g id="a_node3"><a xlink:href="public/read-files.js" xlink:title="read&#45;files.js">
<path fill="#ffffcc" stroke="black" d="M126.36,-91.5C126.36,-91.5 75.66,-91.5 75.66,-91.5 72.83,-91.5 69.99,-88.67 69.99,-85.83 69.99,-85.83 69.99,-80.17 69.99,-80.17 69.99,-77.33 72.83,-74.5 75.66,-74.5 75.66,-74.5 126.36,-74.5 126.36,-74.5 129.19,-74.5 132.02,-77.33 132.02,-80.17 132.02,-80.17 132.02,-85.83 132.02,-85.83 132.02,-88.67 129.19,-91.5 126.36,-91.5"/>
<text text-anchor="middle" x="101.01" y="-80.3" font-family="Helvetica,sans-Serif" font-size="9.00">read&#45;files.js</text>
</a>
</g>
</g>
<!-- public/read&#45;files.js&#45;&gt;fs -->
<g id="edge1" class="edge">
<title>public/read&#45;files.js&#45;&gt;fs</title>
<path fill="none" stroke="#000000" stroke-dasharray="5,2" stroke-opacity="0.200000" d="M132.45,-83C138.27,-83 144.38,-83 150.26,-83"/>
<polygon fill="#000000" fill-opacity="0.200000" stroke="#000000" stroke-opacity="0.200000" points="150.52,-85.1 156.52,-83 150.52,-80.9 150.52,-85.1"/>
</g>
<!-- public/shell.js -->
<g id="node4" class="node">
<title>public/shell.js</title>
<g id="a_node4"><a xlink:href="public/shell.js" xlink:title="shell.js">
<path fill="#ffffcc" stroke="black" d="M122.34,-120.5C122.34,-120.5 79.67,-120.5 79.67,-120.5 76.84,-120.5 74.01,-117.67 74.01,-114.83 74.01,-114.83 74.01,-109.17 74.01,-109.17 74.01,-106.33 76.84,-103.5 79.67,-103.5 79.67,-103.5 122.34,-103.5 122.34,-103.5 125.17,-103.5 128.01,-106.33 128.01,-109.17 128.01,-109.17 128.01,-114.83 128.01,-114.83 128.01,-117.67 125.17,-120.5 122.34,-120.5"/>
<text text-anchor="middle" x="101.01" y="-109.3" font-family="Helvetica,sans-Serif" font-size="9.00">shell.js</text>
</a>
</g>
</g>
<!-- public/shell.js&#45;&gt;child_process -->
<g id="edge2" class="edge">
<title>public/shell.js&#45;&gt;child_process</title>
<path fill="none" stroke="#000000" stroke-dasharray="5,2" stroke-opacity="0.200000" d="M128.37,-119.86C134.62,-121.72 141.38,-123.74 147.94,-125.69"/>
<polygon fill="#000000" fill-opacity="0.200000" stroke="#000000" stroke-opacity="0.200000" points="147.53,-127.76 153.88,-127.46 148.73,-123.74 147.53,-127.76"/>
</g>
<!-- public/tfjs.js -->
<g id="node5" class="node">
<title>public/tfjs.js</title>
<g id="a_node5"><a xlink:href="public/tfjs.js" xlink:title="tfjs.js">
<path fill="#ffffcc" stroke="black" d="M122.34,-62.5C122.34,-62.5 79.67,-62.5 79.67,-62.5 76.84,-62.5 74.01,-59.67 74.01,-56.83 74.01,-56.83 74.01,-51.17 74.01,-51.17 74.01,-48.33 76.84,-45.5 79.67,-45.5 79.67,-45.5 122.34,-45.5 122.34,-45.5 125.17,-45.5 128.01,-48.33 128.01,-51.17 128.01,-51.17 128.01,-56.83 128.01,-56.83 128.01,-59.67 125.17,-62.5 122.34,-62.5"/>
<text text-anchor="middle" x="101.01" y="-51.3" font-family="Helvetica,sans-Serif" font-size="9.00">tfjs.js</text>
</a>
</g>
</g>
<!-- public/use&#45;db.js -->
<g id="node6" class="node">
<title>public/use&#45;db.js</title>
<g id="a_node6"><a xlink:href="public/use-db.js" xlink:title="use&#45;db.js">
<path fill="#ffffcc" stroke="black" d="M122.34,-33.5C122.34,-33.5 79.67,-33.5 79.67,-33.5 76.84,-33.5 74.01,-30.67 74.01,-27.83 74.01,-27.83 74.01,-22.17 74.01,-22.17 74.01,-19.33 76.84,-16.5 79.67,-16.5 79.67,-16.5 122.34,-16.5 122.34,-16.5 125.17,-16.5 128.01,-19.33 128.01,-22.17 128.01,-22.17 128.01,-27.83 128.01,-27.83 128.01,-30.67 125.17,-33.5 122.34,-33.5"/>
<text text-anchor="middle" x="101.01" y="-22.3" font-family="Helvetica,sans-Serif" font-size="9.00">use&#45;db.js</text>
</a>
</g>
</g>
<!-- server.js -->
<g id="node7" class="node">
<title>server.js</title>
<g id="a_node7"><a xlink:href="server.js" xlink:title="server.js">
<path fill="#ffffcc" stroke="black" d="M48.33,-91.5C48.33,-91.5 5.67,-91.5 5.67,-91.5 2.83,-91.5 0,-88.67 0,-85.83 0,-85.83 0,-80.17 0,-80.17 0,-77.33 2.83,-74.5 5.67,-74.5 5.67,-74.5 48.33,-74.5 48.33,-74.5 51.17,-74.5 54,-77.33 54,-80.17 54,-80.17 54,-85.83 54,-85.83 54,-88.67 51.17,-91.5 48.33,-91.5"/>
<text text-anchor="middle" x="27" y="-80.3" font-family="Helvetica,sans-Serif" font-size="9.00">server.js</text>
</a>
</g>
</g>
<!-- server.js&#45;&gt;child_process -->
<g id="edge7" class="edge">
<title>server.js&#45;&gt;child_process</title>
<path fill="none" stroke="#000000" stroke-dasharray="5,2" stroke-opacity="0.200000" d="M29.54,-91.83C32.67,-106.7 41.31,-136.38 62,-149 91.28,-166.85 132.11,-156.71 157.93,-146.98"/>
<polygon fill="#000000" fill-opacity="0.200000" stroke="#000000" stroke-opacity="0.200000" points="159.02,-148.81 163.84,-144.66 157.49,-144.9 159.02,-148.81"/>
</g>
<!-- server.js&#45;&gt;public/read&#45;files.js -->
<g id="edge3" class="edge">
<title>server.js&#45;&gt;public/read&#45;files.js</title>
<path fill="none" stroke="#000000" stroke-width="2" stroke-opacity="0.200000" d="M54.4,-83C57.36,-83 60.41,-83 63.46,-83"/>
<polygon fill="#000000" fill-opacity="0.200000" stroke="#000000" stroke-width="2" stroke-opacity="0.200000" points="63.71,-85.1 69.71,-83 63.71,-80.9 63.71,-85.1"/>
</g>
<!-- server.js&#45;&gt;public/shell.js -->
<g id="edge4" class="edge">
<title>server.js&#45;&gt;public/shell.js</title>
<path fill="none" stroke="#000000" stroke-width="2" stroke-opacity="0.200000" d="M48.84,-91.64C53.18,-93.42 57.74,-95.28 62,-97 65.45,-98.39 69.09,-99.84 72.69,-101.27"/>
<polygon fill="#000000" fill-opacity="0.200000" stroke="#000000" stroke-width="2" stroke-opacity="0.200000" points="71.93,-103.23 78.28,-103.49 73.47,-99.33 71.93,-103.23"/>
</g>
<!-- server.js&#45;&gt;public/tfjs.js -->
<g id="edge5" class="edge">
<title>server.js&#45;&gt;public/tfjs.js</title>
<path fill="none" stroke="#000000" stroke-width="2" stroke-opacity="0.200000" d="M46.97,-74.38C51.84,-72.23 57.1,-69.98 62,-68 64.71,-66.9 67.54,-65.8 70.38,-64.71"/>
<polygon fill="#000000" fill-opacity="0.200000" stroke="#000000" stroke-width="2" stroke-opacity="0.200000" points="71.33,-66.6 76.2,-62.51 69.84,-62.67 71.33,-66.6"/>
</g>
<!-- server.js&#45;&gt;public/use&#45;db.js -->
<g id="edge6" class="edge">
<title>server.js&#45;&gt;public/use&#45;db.js</title>
<path fill="none" stroke="#000000" stroke-width="2" stroke-opacity="0.200000" d="M32.65,-74.38C38.37,-64.54 48.92,-48.59 62,-39 63.87,-37.63 65.88,-36.38 67.98,-35.24"/>
<polygon fill="#000000" fill-opacity="0.200000" stroke="#000000" stroke-width="2" stroke-opacity="0.200000" points="69.18,-37 73.66,-32.49 67.35,-33.22 69.18,-37"/>
</g>
</g>
</svg>
