<?xml version="1.0" encoding="UTF-8" standalone="no"?>
<!DOCTYPE svg PUBLIC "-//W3C//DTD SVG 1.1//EN"
 "http://www.w3.org/Graphics/SVG/1.1/DTD/svg11.dtd">
<!-- Generated by graphviz version 2.43.0 (0)
 -->
<!-- Title: dependency&#45;cruiser output Pages: 1 -->
<svg width="366pt" height="346pt"
 viewBox="0.00 0.00 365.61 346.06" xmlns="http://www.w3.org/2000/svg" xmlns:xlink="http://www.w3.org/1999/xlink">
<g id="graph0" class="graph" transform="scale(1 1) rotate(0) translate(4 342.06)">
<title>dependency&#45;cruiser output</title>
<polygon fill="white" stroke="transparent" points="-4,4 -4,-342.06 361.61,-342.06 361.61,4 -4,4"/>
<g id="clust1" class="cluster">
<title>cluster_public</title>
<path fill="#ffffff" stroke="black" stroke-width="2" d="M74,-25.5C74,-25.5 266.58,-25.5 266.58,-25.5 272.58,-25.5 278.58,-31.5 278.58,-37.5 278.58,-37.5 278.58,-238.5 278.58,-238.5 278.58,-244.5 272.58,-250.5 266.58,-250.5 266.58,-250.5 74,-250.5 74,-250.5 68,-250.5 62,-244.5 62,-238.5 62,-238.5 62,-37.5 62,-37.5 62,-31.5 68,-25.5 74,-25.5"/>
<text text-anchor="middle" x="170.29" y="-239.3" font-family="Helvetica,sans-Serif" font-weight="bold" font-size="9.00">public</text>
</g>
<g id="clust2" class="cluster">
<title>cluster_tests</title>
<path fill="#ffffff" stroke="black" stroke-width="2" d="M102.52,-258.5C102.52,-258.5 158.04,-258.5 158.04,-258.5 164.04,-258.5 170.04,-264.5 170.04,-270.5 170.04,-270.5 170.04,-297.5 170.04,-297.5 170.04,-303.5 164.04,-309.5 158.04,-309.5 158.04,-309.5 102.52,-309.5 102.52,-309.5 96.52,-309.5 90.52,-303.5 90.52,-297.5 90.52,-297.5 90.52,-270.5 90.52,-270.5 90.52,-264.5 96.52,-258.5 102.52,-258.5"/>
<text text-anchor="middle" x="130.28" y="-298.3" font-family="Helvetica,sans-Serif" font-weight="bold" font-size="9.00">tests</text>
</g>
<!-- child_process -->
<g id="node1" class="node">
<title>child_process</title>
<path fill="#ffffcc" stroke="grey" d="M351.96,-225C351.96,-225 292.24,-225 292.24,-225 289.4,-225 286.57,-222.17 286.57,-219.33 286.57,-219.33 286.57,-213.67 286.57,-213.67 286.57,-210.83 289.4,-208 292.24,-208 292.24,-208 351.96,-208 351.96,-208 354.79,-208 357.63,-210.83 357.63,-213.67 357.63,-213.67 357.63,-219.33 357.63,-219.33 357.63,-222.17 354.79,-225 351.96,-225"/>
<text text-anchor="middle" x="322.1" y="-213.8" font-family="Helvetica,sans-Serif" font-size="9.00" fill="grey">child_process</text>
</g>
<!-- fs -->
<g id="node2" class="node">
<title>fs</title>
<path fill="#ffffcc" stroke="grey" d="M258.41,-17C258.41,-17 215.74,-17 215.74,-17 212.91,-17 210.07,-14.17 210.07,-11.33 210.07,-11.33 210.07,-5.67 210.07,-5.67 210.07,-2.83 212.91,0 215.74,0 215.74,0 258.41,0 258.41,0 261.24,0 264.07,-2.83 264.07,-5.67 264.07,-5.67 264.07,-11.33 264.07,-11.33 264.07,-14.17 261.24,-17 258.41,-17"/>
<text text-anchor="middle" x="237.07" y="-5.8" font-family="Helvetica,sans-Serif" font-size="9.00" fill="grey">fs</text>
</g>
<!-- public/api&#45;search.js -->
<g id="node3" class="node">
<title>public/api&#45;search.js</title>
<g id="a_node3"><a xlink:href="public/api-search.js" xlink:title="api&#45;search.js">
<path fill="#ffffcc" stroke="black" d="M264.93,-196C264.93,-196 209.22,-196 209.22,-196 206.39,-196 203.55,-193.17 203.55,-190.33 203.55,-190.33 203.55,-184.67 203.55,-184.67 203.55,-181.83 206.39,-179 209.22,-179 209.22,-179 264.93,-179 264.93,-179 267.76,-179 270.59,-181.83 270.59,-184.67 270.59,-184.67 270.59,-190.33 270.59,-190.33 270.59,-193.17 267.76,-196 264.93,-196"/>
<text text-anchor="middle" x="237.07" y="-184.8" font-family="Helvetica,sans-Serif" font-size="9.00">api&#45;search.js</text>
</a>
</g>
</g>
<!-- public/console.js -->
<g id="node4" class="node">
<title>public/console.js</title>
<g id="a_node4"><a xlink:href="public/console.js" xlink:title="console.js">
<path fill="#ccffcc" stroke="black" d="M152.64,-225C152.64,-225 107.93,-225 107.93,-225 105.09,-225 102.26,-222.17 102.26,-219.33 102.26,-219.33 102.26,-213.67 102.26,-213.67 102.26,-210.83 105.09,-208 107.93,-208 107.93,-208 152.64,-208 152.64,-208 155.47,-208 158.3,-210.83 158.3,-213.67 158.3,-213.67 158.3,-219.33 158.3,-219.33 158.3,-222.17 155.47,-225 152.64,-225"/>
<text text-anchor="middle" x="130.28" y="-213.8" font-family="Helvetica,sans-Serif" font-size="9.00">console.js</text>
</a>
</g>
</g>
<!-- public/index.js -->
<g id="node5" class="node">
<title>public/index.js</title>
<g id="a_node5"><a xlink:href="public/index.js" xlink:title="index.js">
<path fill="#ffffcc" stroke="black" d="M151.62,-196C151.62,-196 108.95,-196 108.95,-196 106.12,-196 103.28,-193.17 103.28,-190.33 103.28,-190.33 103.28,-184.67 103.28,-184.67 103.28,-181.83 106.12,-179 108.95,-179 108.95,-179 151.62,-179 151.62,-179 154.45,-179 157.28,-181.83 157.28,-184.67 157.28,-184.67 157.28,-190.33 157.28,-190.33 157.28,-193.17 154.45,-196 151.62,-196"/>
<text text-anchor="middle" x="130.28" y="-184.8" font-family="Helvetica,sans-Serif" font-size="9.00">index.js</text>
</a>
</g>
</g>
<!-- public/index.js&#45;&gt;public/api&#45;search.js -->
<g id="edge1" class="edge">
<title>public/index.js&#45;&gt;public/api&#45;search.js</title>
<path fill="none" stroke="#000000" stroke-width="2" stroke-opacity="0.200000" d="M157.45,-187.5C169.55,-187.5 184.15,-187.5 197.47,-187.5"/>
<polygon fill="#000000" fill-opacity="0.200000" stroke="#000000" stroke-width="2" stroke-opacity="0.200000" points="197.49,-189.6 203.49,-187.5 197.49,-185.4 197.49,-189.6"/>
</g>
<!-- public/say.js -->
<g id="node6" class="node">
<title>public/say.js</title>
<g id="a_node6"><a xlink:href="public/say.js" xlink:title="say.js">
<path fill="#ffffcc" stroke="black" d="M258.41,-167C258.41,-167 215.74,-167 215.74,-167 212.91,-167 210.07,-164.17 210.07,-161.33 210.07,-161.33 210.07,-155.67 210.07,-155.67 210.07,-152.83 212.91,-150 215.74,-150 215.74,-150 258.41,-150 258.41,-150 261.24,-150 264.07,-152.83 264.07,-155.67 264.07,-155.67 264.07,-161.33 264.07,-161.33 264.07,-164.17 261.24,-167 258.41,-167"/>
<text text-anchor="middle" x="237.07" y="-155.8" font-family="Helvetica,sans-Serif" font-size="9.00">say.js</text>
</a>
</g>
</g>
<!-- public/index.js&#45;&gt;public/say.js -->
<g id="edge2" class="edge">
<title>public/index.js&#45;&gt;public/say.js</title>
<path fill="none" stroke="#000000" stroke-width="2" stroke-opacity="0.200000" d="M157.38,-181.85C167.76,-179.47 179.78,-176.55 190.56,-173.5 195.4,-172.14 200.48,-170.58 205.43,-169"/>
<polygon fill="#000000" fill-opacity="0.200000" stroke="#000000" stroke-width="2" stroke-opacity="0.200000" points="206.1,-170.99 211.16,-167.14 204.8,-167 206.1,-170.99"/>
</g>
<!-- public/shell.js -->
<g id="node7" class="node">
<title>public/shell.js</title>
<g id="a_node7"><a xlink:href="public/shell.js" xlink:title="shell.js">
<path fill="#ffffcc" stroke="black" d="M258.41,-225C258.41,-225 215.74,-225 215.74,-225 212.91,-225 210.07,-222.17 210.07,-219.33 210.07,-219.33 210.07,-213.67 210.07,-213.67 210.07,-210.83 212.91,-208 215.74,-208 215.74,-208 258.41,-208 258.41,-208 261.24,-208 264.07,-210.83 264.07,-213.67 264.07,-213.67 264.07,-219.33 264.07,-219.33 264.07,-222.17 261.24,-225 258.41,-225"/>
<text text-anchor="middle" x="237.07" y="-213.8" font-family="Helvetica,sans-Serif" font-size="9.00">shell.js</text>
</a>
</g>
</g>
<!-- public/index.js&#45;&gt;public/shell.js -->
<g id="edge3" class="edge">
<title>public/index.js&#45;&gt;public/shell.js</title>
<path fill="none" stroke="#000000" stroke-width="2" stroke-opacity="0.200000" d="M157.33,-193.79C167.7,-196.37 179.73,-199.46 190.56,-202.5 194.83,-203.7 199.31,-205 203.72,-206.33"/>
<polygon fill="#000000" fill-opacity="0.200000" stroke="#000000" stroke-width="2" stroke-opacity="0.200000" points="203.32,-208.4 209.67,-208.13 204.54,-204.38 203.32,-208.4"/>
</g>
<!-- public/shell.js&#45;&gt;child_process -->
<g id="edge5" class="edge">
<title>public/shell.js&#45;&gt;child_process</title>
<path fill="none" stroke="#000000" stroke-dasharray="5,2" stroke-opacity="0.200000" d="M264.34,-216.5C269.4,-216.5 274.8,-216.5 280.19,-216.5"/>
<polygon fill="#000000" fill-opacity="0.200000" stroke="#000000" stroke-opacity="0.200000" points="280.49,-218.6 286.49,-216.5 280.49,-214.4 280.49,-218.6"/>
</g>
<!-- public/internet&#45;connection.js -->
<g id="node8" class="node">
<title>public/internet&#45;connection.js</title>
<g id="a_node8"><a xlink:href="public/internet-connection.js" xlink:title="internet&#45;connection.js">
<path fill="#ccffcc" stroke="black" d="M175.16,-167C175.16,-167 85.4,-167 85.4,-167 82.57,-167 79.73,-164.17 79.73,-161.33 79.73,-161.33 79.73,-155.67 79.73,-155.67 79.73,-152.83 82.57,-150 85.4,-150 85.4,-150 175.16,-150 175.16,-150 178,-150 180.83,-152.83 180.83,-155.67 180.83,-155.67 180.83,-161.33 180.83,-161.33 180.83,-164.17 178,-167 175.16,-167"/>
<text text-anchor="middle" x="130.28" y="-155.8" font-family="Helvetica,sans-Serif" font-size="9.00">internet&#45;connection.js</text>
</a>
</g>
</g>
<!-- public/read&#45;files.js -->
<g id="node9" class="node">
<title>public/read&#45;files.js</title>
<g id="a_node9"><a xlink:href="public/read-files.js" xlink:title="read&#45;files.js">
<path fill="#ffffcc" stroke="black" d="M155.63,-80C155.63,-80 104.93,-80 104.93,-80 102.1,-80 99.27,-77.17 99.27,-74.33 99.27,-74.33 99.27,-68.67 99.27,-68.67 99.27,-65.83 102.1,-63 104.93,-63 104.93,-63 155.63,-63 155.63,-63 158.46,-63 161.3,-65.83 161.3,-68.67 161.3,-68.67 161.3,-74.33 161.3,-74.33 161.3,-77.17 158.46,-80 155.63,-80"/>
<text text-anchor="middle" x="130.28" y="-68.8" font-family="Helvetica,sans-Serif" font-size="9.00">read&#45;files.js</text>
</a>
</g>
</g>
<!-- public/read&#45;files.js&#45;&gt;fs -->
<g id="edge4" class="edge">
<title>public/read&#45;files.js&#45;&gt;fs</title>
<path fill="none" stroke="#000000" stroke-dasharray="5,2" stroke-opacity="0.200000" d="M161.36,-70.09C171.64,-68.24 182.56,-64.57 190.56,-57.5 203,-46.51 192.13,-34.53 203.56,-22.5 204.05,-21.99 204.56,-21.49 205.09,-21.02"/>
<polygon fill="#000000" fill-opacity="0.200000" stroke="#000000" stroke-opacity="0.200000" points="206.7,-22.43 210.27,-17.17 204.2,-19.06 206.7,-22.43"/>
</g>
<!-- public/responsiveVoiceBackup.js -->
<g id="node10" class="node">
<title>public/responsiveVoiceBackup.js</title>
<g id="a_node10"><a xlink:href="public/responsiveVoiceBackup.js" xlink:title="responsiveVoiceBackup.js">
<path fill="#ccffcc" stroke="black" d="M184.68,-109C184.68,-109 75.88,-109 75.88,-109 73.05,-109 70.22,-106.17 70.22,-103.33 70.22,-103.33 70.22,-97.67 70.22,-97.67 70.22,-94.83 73.05,-92 75.88,-92 75.88,-92 184.68,-92 184.68,-92 187.51,-92 190.35,-94.83 190.35,-97.67 190.35,-97.67 190.35,-103.33 190.35,-103.33 190.35,-106.17 187.51,-109 184.68,-109"/>
<text text-anchor="middle" x="130.28" y="-97.8" font-family="Helvetica,sans-Serif" font-size="9.00">responsiveVoiceBackup.js</text>
</a>
</g>
</g>
<!-- public/tfjs.js -->
<g id="node11" class="node">
<title>public/tfjs.js</title>
<g id="a_node11"><a xlink:href="public/tfjs.js" xlink:title="tfjs.js">
<path fill="#ffffcc" stroke="black" d="M151.62,-138C151.62,-138 108.95,-138 108.95,-138 106.12,-138 103.28,-135.17 103.28,-132.33 103.28,-132.33 103.28,-126.67 103.28,-126.67 103.28,-123.83 106.12,-121 108.95,-121 108.95,-121 151.62,-121 151.62,-121 154.45,-121 157.28,-123.83 157.28,-126.67 157.28,-126.67 157.28,-132.33 157.28,-132.33 157.28,-135.17 154.45,-138 151.62,-138"/>
<text text-anchor="middle" x="130.28" y="-126.8" font-family="Helvetica,sans-Serif" font-size="9.00">tfjs.js</text>
</a>
</g>
</g>
<!-- public/use&#45;db.js -->
<g id="node12" class="node">
<title>public/use&#45;db.js</title>
<g id="a_node12"><a xlink:href="public/use-db.js" xlink:title="use&#45;db.js">
<path fill="#ffffcc" stroke="black" d="M151.62,-51C151.62,-51 108.95,-51 108.95,-51 106.12,-51 103.28,-48.17 103.28,-45.33 103.28,-45.33 103.28,-39.67 103.28,-39.67 103.28,-36.83 106.12,-34 108.95,-34 108.95,-34 151.62,-34 151.62,-34 154.45,-34 157.28,-36.83 157.28,-39.67 157.28,-39.67 157.28,-45.33 157.28,-45.33 157.28,-48.17 154.45,-51 151.62,-51"/>
<text text-anchor="middle" x="130.28" y="-39.8" font-family="Helvetica,sans-Serif" font-size="9.00">use&#45;db.js</text>
</a>
</g>
</g>
<!-- server.js -->
<g id="node13" class="node">
<title>server.js</title>
<g id="a_node13"><a xlink:href="server.js" xlink:title="server.js">
<path fill="#ffffcc" stroke="black" d="M48.33,-109C48.33,-109 5.67,-109 5.67,-109 2.83,-109 0,-106.17 0,-103.33 0,-103.33 0,-97.67 0,-97.67 0,-94.83 2.83,-92 5.67,-92 5.67,-92 48.33,-92 48.33,-92 51.17,-92 54,-94.83 54,-97.67 54,-97.67 54,-103.33 54,-103.33 54,-106.17 51.17,-109 48.33,-109"/>
<text text-anchor="middle" x="27" y="-97.8" font-family="Helvetica,sans-Serif" font-size="9.00">server.js</text>
</a>
</g>
</g>
<!-- server.js&#45;&gt;public/shell.js -->
<g id="edge7" class="edge">
<title>server.js&#45;&gt;public/shell.js</title>
<path fill="none" stroke="#000000" stroke-width="2" stroke-opacity="0.200000" d="M27.97,-109.3C28.07,-145.94 30.51,-285.66 62,-312.5 105.49,-349.57 142.28,-343.05 190.56,-312.5 219.08,-294.46 230.08,-253.18 234.04,-231.09"/>
<polygon fill="#000000" fill-opacity="0.200000" stroke="#000000" stroke-width="2" stroke-opacity="0.200000" points="236.11,-231.41 235.01,-225.14 231.97,-230.73 236.11,-231.41"/>
</g>
<!-- server.js&#45;&gt;public/read&#45;files.js -->
<g id="edge6" class="edge">
<title>server.js&#45;&gt;public/read&#45;files.js</title>
<path fill="none" stroke="#000000" stroke-width="2" stroke-opacity="0.200000" d="M47.21,-91.92C51.98,-89.98 57.13,-88.03 62,-86.5 72.02,-83.35 83.08,-80.59 93.28,-78.33"/>
<polygon fill="#000000" fill-opacity="0.200000" stroke="#000000" stroke-width="2" stroke-opacity="0.200000" points="93.76,-80.38 99.18,-77.06 92.87,-76.27 93.76,-80.38"/>
</g>
<!-- server.js&#45;&gt;public/tfjs.js -->
<g id="edge8" class="edge">
<title>server.js&#45;&gt;public/tfjs.js</title>
<path fill="none" stroke="#000000" stroke-width="2" stroke-opacity="0.200000" d="M45.37,-109.01C50.63,-111.35 56.47,-113.73 62,-115.5 73.22,-119.1 85.79,-122 97,-124.21"/>
<polygon fill="#000000" fill-opacity="0.200000" stroke="#000000" stroke-width="2" stroke-opacity="0.200000" points="96.78,-126.31 103.07,-125.37 97.57,-122.18 96.78,-126.31"/>
</g>
<!-- server.js&#45;&gt;public/use&#45;db.js -->
<g id="edge9" class="edge">
<title>server.js&#45;&gt;public/use&#45;db.js</title>
<path fill="none" stroke="#000000" stroke-width="2" stroke-opacity="0.200000" d="M32.49,-91.76C38.05,-81.86 48.46,-66 62,-57.5 72.44,-50.94 85.38,-47.24 97.11,-45.14"/>
<polygon fill="#000000" fill-opacity="0.200000" stroke="#000000" stroke-width="2" stroke-opacity="0.200000" points="97.52,-47.21 103.12,-44.19 96.86,-43.06 97.52,-47.21"/>
</g>
<!-- tests/index.test.js -->
<g id="node14" class="node">
<title>tests/index.test.js</title>
<g id="a_node14"><a xlink:href="tests/index.test.js" xlink:title="index.test.js">
<path fill="#ffffcc" stroke="black" d="M156.14,-284C156.14,-284 104.42,-284 104.42,-284 101.59,-284 98.76,-281.17 98.76,-278.33 98.76,-278.33 98.76,-272.67 98.76,-272.67 98.76,-269.83 101.59,-267 104.42,-267 104.42,-267 156.14,-267 156.14,-267 158.97,-267 161.81,-269.83 161.81,-272.67 161.81,-272.67 161.81,-278.33 161.81,-278.33 161.81,-281.17 158.97,-284 156.14,-284"/>
<text text-anchor="middle" x="130.28" y="-272.8" font-family="Helvetica,sans-Serif" font-size="9.00">index.test.js</text>
</a>
</g>
</g>
<!-- tests/index.test.js&#45;&gt;public/api&#45;search.js -->
<g id="edge10" class="edge">
<title>tests/index.test.js&#45;&gt;public/api&#45;search.js</title>
<path fill="none" stroke="#000000" stroke-width="2" stroke-opacity="0.200000" d="M162.01,-270.14C172.36,-266.91 183.15,-261.74 190.56,-253.5 206.21,-236.11 188.6,-220.48 203.56,-202.5 204.34,-201.57 205.18,-200.69 206.09,-199.87"/>
<polygon fill="#000000" fill-opacity="0.200000" stroke="#000000" stroke-width="2" stroke-opacity="0.200000" points="207.46,-201.46 210.98,-196.16 204.93,-198.11 207.46,-201.46"/>
</g>
</g>
</svg>
