<?xml version="1.0" encoding="UTF-8" standalone="no"?>
<!DOCTYPE svg PUBLIC "-//W3C//DTD SVG 1.1//EN"
 "http://www.w3.org/Graphics/SVG/1.1/DTD/svg11.dtd">
<!-- Generated by graphviz version 2.43.0 (0)
 -->
<!-- Title: dependency&#45;cruiser output Pages: 1 -->
<svg width="290pt" height="162pt"
 viewBox="0.00 0.00 290.07 162.00" xmlns="http://www.w3.org/2000/svg" xmlns:xlink="http://www.w3.org/1999/xlink">
<g id="graph0" class="graph" transform="scale(1 1) rotate(0) translate(4 158)">
<title>dependency&#45;cruiser output</title>
<polygon fill="white" stroke="transparent" points="-4,4 -4,-158 286.07,-158 286.07,4 -4,4"/>
<g id="clust1" class="cluster">
<title>cluster_public</title>
<path fill="#ffffff" stroke="black" stroke-width="2" d="M20,-8C20,-8 191.04,-8 191.04,-8 197.04,-8 203.04,-14 203.04,-20 203.04,-20 203.04,-134 203.04,-134 203.04,-140 197.04,-146 191.04,-146 191.04,-146 20,-146 20,-146 14,-146 8,-140 8,-134 8,-134 8,-20 8,-20 8,-14 14,-8 20,-8"/>
<text text-anchor="middle" x="105.52" y="-134.8" font-family="Helvetica,sans-Serif" font-weight="bold" font-size="9.00">public</text>
</g>
<!-- child_process -->
<g id="node1" class="node">
<title>child_process</title>
<path fill="#ffffcc" stroke="grey" d="M276.42,-120.5C276.42,-120.5 216.69,-120.5 216.69,-120.5 213.86,-120.5 211.03,-117.67 211.03,-114.83 211.03,-114.83 211.03,-109.17 211.03,-109.17 211.03,-106.33 213.86,-103.5 216.69,-103.5 216.69,-103.5 276.42,-103.5 276.42,-103.5 279.25,-103.5 282.08,-106.33 282.08,-109.17 282.08,-109.17 282.08,-114.83 282.08,-114.83 282.08,-117.67 279.25,-120.5 276.42,-120.5"/>
<text text-anchor="middle" x="246.56" y="-109.3" font-family="Helvetica,sans-Serif" font-size="9.00" fill="grey">child_process</text>
</g>
<!-- public/api&#45;search.js -->
<g id="node2" class="node">
<title>public/api&#45;search.js</title>
<g id="a_node2"><a xlink:href="public/api-search.js" xlink:title="api&#45;search.js">
<path fill="#ffffcc" stroke="black" d="M166.88,-33.5C166.88,-33.5 111.17,-33.5 111.17,-33.5 108.33,-33.5 105.5,-30.67 105.5,-27.83 105.5,-27.83 105.5,-22.17 105.5,-22.17 105.5,-19.33 108.33,-16.5 111.17,-16.5 111.17,-16.5 166.88,-16.5 166.88,-16.5 169.71,-16.5 172.54,-19.33 172.54,-22.17 172.54,-22.17 172.54,-27.83 172.54,-27.83 172.54,-30.67 169.71,-33.5 166.88,-33.5"/>
<text text-anchor="middle" x="139.02" y="-22.3" font-family="Helvetica,sans-Serif" font-size="9.00">api&#45;search.js</text>
</a>
</g>
</g>
<!-- public/index.js -->
<g id="node3" class="node">
<title>public/index.js</title>
<g id="a_node3"><a xlink:href="public/index.js" xlink:title="index.js">
<path fill="#ffffcc" stroke="black" d="M64.33,-76.5C64.33,-76.5 21.67,-76.5 21.67,-76.5 18.83,-76.5 16,-73.67 16,-70.83 16,-70.83 16,-65.17 16,-65.17 16,-62.33 18.83,-59.5 21.67,-59.5 21.67,-59.5 64.33,-59.5 64.33,-59.5 67.17,-59.5 70,-62.33 70,-65.17 70,-65.17 70,-70.83 70,-70.83 70,-73.67 67.17,-76.5 64.33,-76.5"/>
<text text-anchor="middle" x="43" y="-65.3" font-family="Helvetica,sans-Serif" font-size="9.00">index.js</text>
</a>
</g>
</g>
<!-- public/index.js&#45;&gt;public/api&#45;search.js -->
<g id="edge1" class="edge">
<title>public/index.js&#45;&gt;public/api&#45;search.js</title>
<path fill="none" stroke="#000000" stroke-width="2" stroke-opacity="0.200000" d="M53.96,-59.31C61.48,-53.15 72.31,-45.09 83,-40 88.12,-37.56 93.7,-35.46 99.29,-33.68"/>
<polygon fill="#000000" fill-opacity="0.200000" stroke="#000000" stroke-width="2" stroke-opacity="0.200000" points="100.19,-35.6 105.32,-31.86 98.97,-31.58 100.19,-35.6"/>
</g>
<!-- public/say.js -->
<g id="node4" class="node">
<title>public/say.js</title>
<g id="a_node4"><a xlink:href="public/say.js" xlink:title="say.js">
<path fill="#ffffcc" stroke="black" d="M160.35,-62.5C160.35,-62.5 117.69,-62.5 117.69,-62.5 114.85,-62.5 112.02,-59.67 112.02,-56.83 112.02,-56.83 112.02,-51.17 112.02,-51.17 112.02,-48.33 114.85,-45.5 117.69,-45.5 117.69,-45.5 160.35,-45.5 160.35,-45.5 163.19,-45.5 166.02,-48.33 166.02,-51.17 166.02,-51.17 166.02,-56.83 166.02,-56.83 166.02,-59.67 163.19,-62.5 160.35,-62.5"/>
<text text-anchor="middle" x="139.02" y="-51.3" font-family="Helvetica,sans-Serif" font-size="9.00">say.js</text>
</a>
</g>
</g>
<!-- public/index.js&#45;&gt;public/say.js -->
<g id="edge2" class="edge">
<title>public/index.js&#45;&gt;public/say.js</title>
<path fill="none" stroke="#000000" stroke-width="2" stroke-opacity="0.200000" d="M70.19,-64.1C81.3,-62.45 94.34,-60.5 106.01,-58.77"/>
<polygon fill="#000000" fill-opacity="0.200000" stroke="#000000" stroke-width="2" stroke-opacity="0.200000" points="106.35,-60.84 111.97,-57.88 105.73,-56.69 106.35,-60.84"/>
</g>
<!-- public/sentence&#45;with&#45;spaces.js -->
<g id="node5" class="node">
<title>public/sentence&#45;with&#45;spaces.js</title>
<g id="a_node5"><a xlink:href="public/sentence-with-spaces.js" xlink:title="sentence&#45;with&#45;spaces.js">
<path fill="#ffffcc" stroke="black" d="M189.4,-91.5C189.4,-91.5 88.65,-91.5 88.65,-91.5 85.81,-91.5 82.98,-88.67 82.98,-85.83 82.98,-85.83 82.98,-80.17 82.98,-80.17 82.98,-77.33 85.81,-74.5 88.65,-74.5 88.65,-74.5 189.4,-74.5 189.4,-74.5 192.23,-74.5 195.06,-77.33 195.06,-80.17 195.06,-80.17 195.06,-85.83 195.06,-85.83 195.06,-88.67 192.23,-91.5 189.4,-91.5"/>
<text text-anchor="middle" x="139.02" y="-80.3" font-family="Helvetica,sans-Serif" font-size="9.00">sentence&#45;with&#45;spaces.js</text>
</a>
</g>
</g>
<!-- public/index.js&#45;&gt;public/sentence&#45;with&#45;spaces.js -->
<g id="edge3" class="edge">
<title>public/index.js&#45;&gt;public/sentence&#45;with&#45;spaces.js</title>
<path fill="none" stroke="#000000" stroke-width="2" stroke-opacity="0.200000" d="M70.19,-72.18C72.9,-72.61 75.73,-73.06 78.62,-73.52"/>
<polygon fill="#000000" fill-opacity="0.200000" stroke="#000000" stroke-width="2" stroke-opacity="0.200000" points="78.38,-75.61 84.64,-74.48 79.04,-71.46 78.38,-75.61"/>
</g>
<!-- public/shell.js -->
<g id="node6" class="node">
<title>public/shell.js</title>
<g id="a_node6"><a xlink:href="public/shell.js" xlink:title="shell.js">
<path fill="#ffffcc" stroke="black" d="M160.35,-120.5C160.35,-120.5 117.69,-120.5 117.69,-120.5 114.85,-120.5 112.02,-117.67 112.02,-114.83 112.02,-114.83 112.02,-109.17 112.02,-109.17 112.02,-106.33 114.85,-103.5 117.69,-103.5 117.69,-103.5 160.35,-103.5 160.35,-103.5 163.19,-103.5 166.02,-106.33 166.02,-109.17 166.02,-109.17 166.02,-114.83 166.02,-114.83 166.02,-117.67 163.19,-120.5 160.35,-120.5"/>
<text text-anchor="middle" x="139.02" y="-109.3" font-family="Helvetica,sans-Serif" font-size="9.00">shell.js</text>
</a>
</g>
</g>
<!-- public/index.js&#45;&gt;public/shell.js -->
<g id="edge4" class="edge">
<title>public/index.js&#45;&gt;public/shell.js</title>
<path fill="none" stroke="#000000" stroke-width="2" stroke-opacity="0.200000" d="M52.9,-76.56C60.37,-83.31 71.63,-92.47 83,-98 90,-101.4 97.91,-104.03 105.5,-106.05"/>
<polygon fill="#000000" fill-opacity="0.200000" stroke="#000000" stroke-width="2" stroke-opacity="0.200000" points="105.45,-108.2 111.78,-107.6 106.46,-104.13 105.45,-108.2"/>
</g>
<!-- public/shell.js&#45;&gt;child_process -->
<g id="edge5" class="edge">
<title>public/shell.js&#45;&gt;child_process</title>
<path fill="none" stroke="#000000" stroke-dasharray="5,2" stroke-opacity="0.200000" d="M166.11,-112C177.75,-112 191.75,-112 204.73,-112"/>
<polygon fill="#000000" fill-opacity="0.200000" stroke="#000000" stroke-opacity="0.200000" points="205.01,-114.1 211.01,-112 205.01,-109.9 205.01,-114.1"/>
</g>
</g>
</svg>
