<?xml version="1.0" encoding="UTF-8" standalone="no"?>
<!DOCTYPE svg PUBLIC "-//W3C//DTD SVG 1.1//EN"
 "http://www.w3.org/Graphics/SVG/1.1/DTD/svg11.dtd">
<!-- Generated by graphviz version 2.43.0 (0)
 -->
<!-- Title: dependency&#45;cruiser output Pages: 1 -->
<svg width="510pt" height="478pt"
 viewBox="0.00 0.00 509.68 478.12" xmlns="http://www.w3.org/2000/svg" xmlns:xlink="http://www.w3.org/1999/xlink">
<g id="graph0" class="graph" transform="scale(1 1) rotate(0) translate(4 474.12)">
<title>dependency&#45;cruiser output</title>
<polygon fill="white" stroke="transparent" points="-4,4 -4,-474.12 505.68,-474.12 505.68,4 -4,4"/>
<g id="clust1" class="cluster">
<title>cluster_public</title>
<path fill="#ffffff" stroke="black" stroke-width="2" d="M173.05,-70.12C173.05,-70.12 410.66,-70.12 410.66,-70.12 416.66,-70.12 422.66,-76.12 422.66,-82.12 422.66,-82.12 422.66,-370.12 422.66,-370.12 422.66,-376.12 416.66,-382.12 410.66,-382.12 410.66,-382.12 173.05,-382.12 173.05,-382.12 167.05,-382.12 161.05,-376.12 161.05,-370.12 161.05,-370.12 161.05,-82.12 161.05,-82.12 161.05,-76.12 167.05,-70.12 173.05,-70.12"/>
<text text-anchor="middle" x="291.85" y="-370.92" font-family="Helvetica,sans-Serif" font-weight="bold" font-size="9.00">public</text>
</g>
<g id="clust2" class="cluster">
<title>cluster_tests</title>
<path fill="#ffffff" stroke="black" stroke-width="2" d="M20,-295.12C20,-295.12 141.05,-295.12 141.05,-295.12 147.05,-295.12 153.05,-301.12 153.05,-307.12 153.05,-307.12 153.05,-450.12 153.05,-450.12 153.05,-456.12 147.05,-462.12 141.05,-462.12 141.05,-462.12 20,-462.12 20,-462.12 14,-462.12 8,-456.12 8,-450.12 8,-450.12 8,-307.12 8,-307.12 8,-301.12 14,-295.12 20,-295.12"/>
<text text-anchor="middle" x="80.52" y="-450.92" font-family="Helvetica,sans-Serif" font-weight="bold" font-size="9.00">tests</text>
</g>
<!-- child_process -->
<g id="node1" class="node">
<title>child_process</title>
<path fill="#ffffcc" stroke="grey" d="M496.03,-165.62C496.03,-165.62 436.31,-165.62 436.31,-165.62 433.47,-165.62 430.64,-162.79 430.64,-159.95 430.64,-159.95 430.64,-154.29 430.64,-154.29 430.64,-151.45 433.47,-148.62 436.31,-148.62 436.31,-148.62 496.03,-148.62 496.03,-148.62 498.86,-148.62 501.7,-151.45 501.7,-154.29 501.7,-154.29 501.7,-159.95 501.7,-159.95 501.7,-162.79 498.86,-165.62 496.03,-165.62"/>
<text text-anchor="middle" x="466.17" y="-154.42" font-family="Helvetica,sans-Serif" font-size="9.00" fill="grey">child_process</text>
</g>
<!-- fs -->
<g id="node2" class="node">
<title>fs</title>
<path fill="#ffffcc" stroke="grey" d="M379.97,-61.62C379.97,-61.62 337.3,-61.62 337.3,-61.62 334.47,-61.62 331.63,-58.79 331.63,-55.95 331.63,-55.95 331.63,-50.29 331.63,-50.29 331.63,-47.45 334.47,-44.62 337.3,-44.62 337.3,-44.62 379.97,-44.62 379.97,-44.62 382.8,-44.62 385.63,-47.45 385.63,-50.29 385.63,-50.29 385.63,-55.95 385.63,-55.95 385.63,-58.79 382.8,-61.62 379.97,-61.62"/>
<text text-anchor="middle" x="358.63" y="-50.42" font-family="Helvetica,sans-Serif" font-size="9.00" fill="grey">fs</text>
</g>
<!-- public/api&#45;search.js -->
<g id="node3" class="node">
<title>public/api&#45;search.js</title>
<g id="a_node3"><a xlink:href="public/api-search.js" xlink:title="api&#45;search.js">
<path fill="#ffffcc" stroke="black" d="M386.49,-356.62C386.49,-356.62 330.78,-356.62 330.78,-356.62 327.95,-356.62 325.11,-353.79 325.11,-350.95 325.11,-350.95 325.11,-345.29 325.11,-345.29 325.11,-342.45 327.95,-339.62 330.78,-339.62 330.78,-339.62 386.49,-339.62 386.49,-339.62 389.32,-339.62 392.15,-342.45 392.15,-345.29 392.15,-345.29 392.15,-350.95 392.15,-350.95 392.15,-353.79 389.32,-356.62 386.49,-356.62"/>
<text text-anchor="middle" x="358.63" y="-345.42" font-family="Helvetica,sans-Serif" font-size="9.00">api&#45;search.js</text>
</a>
</g>
</g>
<!-- public/console.js -->
<g id="node4" class="node">
<title>public/console.js</title>
<g id="a_node4"><a xlink:href="public/console.js" xlink:title="console.js">
<path fill="#ccffcc" stroke="black" d="M251.69,-356.62C251.69,-356.62 206.98,-356.62 206.98,-356.62 204.14,-356.62 201.31,-353.79 201.31,-350.95 201.31,-350.95 201.31,-345.29 201.31,-345.29 201.31,-342.45 204.14,-339.62 206.98,-339.62 206.98,-339.62 251.69,-339.62 251.69,-339.62 254.52,-339.62 257.35,-342.45 257.35,-345.29 257.35,-345.29 257.35,-350.95 257.35,-350.95 257.35,-353.79 254.52,-356.62 251.69,-356.62"/>
<text text-anchor="middle" x="229.33" y="-345.42" font-family="Helvetica,sans-Serif" font-size="9.00">console.js</text>
</a>
</g>
</g>
<!-- public/google.js -->
<g id="node5" class="node">
<title>public/google.js</title>
<g id="a_node5"><a xlink:href="public/google.js" xlink:title="google.js">
<path fill="#ffffcc" stroke="black" d="M250.66,-327.62C250.66,-327.62 208,-327.62 208,-327.62 205.16,-327.62 202.33,-324.79 202.33,-321.95 202.33,-321.95 202.33,-316.29 202.33,-316.29 202.33,-313.45 205.16,-310.62 208,-310.62 208,-310.62 250.66,-310.62 250.66,-310.62 253.5,-310.62 256.33,-313.45 256.33,-316.29 256.33,-316.29 256.33,-321.95 256.33,-321.95 256.33,-324.79 253.5,-327.62 250.66,-327.62"/>
<text text-anchor="middle" x="229.33" y="-316.42" font-family="Helvetica,sans-Serif" font-size="9.00">google.js</text>
</a>
</g>
</g>
<!-- public/index.js -->
<g id="node6" class="node">
<title>public/index.js</title>
<g id="a_node6"><a xlink:href="public/index.js" xlink:title="index.js">
<path fill="#ffffcc" stroke="black" d="M250.66,-298.62C250.66,-298.62 208,-298.62 208,-298.62 205.16,-298.62 202.33,-295.79 202.33,-292.95 202.33,-292.95 202.33,-287.29 202.33,-287.29 202.33,-284.45 205.16,-281.62 208,-281.62 208,-281.62 250.66,-281.62 250.66,-281.62 253.5,-281.62 256.33,-284.45 256.33,-287.29 256.33,-287.29 256.33,-292.95 256.33,-292.95 256.33,-295.79 253.5,-298.62 250.66,-298.62"/>
<text text-anchor="middle" x="229.33" y="-287.42" font-family="Helvetica,sans-Serif" font-size="9.00">index.js</text>
</a>
</g>
</g>
<!-- public/index.js&#45;&gt;public/api&#45;search.js -->
<g id="edge1" class="edge">
<title>public/index.js&#45;&gt;public/api&#45;search.js</title>
<path fill="none" stroke="#000000" stroke-width="2" stroke-opacity="0.200000" d="M256.56,-291.71C267.8,-293.58 280.43,-297.4 289.61,-305.12 300.43,-314.2 291.8,-325.03 302.61,-334.12 307.37,-338.12 313.11,-340.99 319.07,-343.06"/>
<polygon fill="#000000" fill-opacity="0.200000" stroke="#000000" stroke-width="2" stroke-opacity="0.200000" points="318.73,-345.15 325.08,-344.87 319.94,-341.13 318.73,-345.15"/>
</g>
<!-- public/say.js -->
<g id="node7" class="node">
<title>public/say.js</title>
<g id="a_node7"><a xlink:href="public/say.js" xlink:title="say.js">
<path fill="#ffffcc" stroke="black" d="M379.97,-269.62C379.97,-269.62 337.3,-269.62 337.3,-269.62 334.47,-269.62 331.63,-266.79 331.63,-263.95 331.63,-263.95 331.63,-258.29 331.63,-258.29 331.63,-255.45 334.47,-252.62 337.3,-252.62 337.3,-252.62 379.97,-252.62 379.97,-252.62 382.8,-252.62 385.63,-255.45 385.63,-258.29 385.63,-258.29 385.63,-263.95 385.63,-263.95 385.63,-266.79 382.8,-269.62 379.97,-269.62"/>
<text text-anchor="middle" x="358.63" y="-258.42" font-family="Helvetica,sans-Serif" font-size="9.00">say.js</text>
</a>
</g>
</g>
<!-- public/index.js&#45;&gt;public/say.js -->
<g id="edge2" class="edge">
<title>public/index.js&#45;&gt;public/say.js</title>
<path fill="none" stroke="#000000" stroke-width="2" stroke-opacity="0.200000" d="M256.4,-284.18C276.48,-279.61 304.34,-273.26 325.74,-268.38"/>
<polygon fill="#000000" fill-opacity="0.200000" stroke="#000000" stroke-width="2" stroke-opacity="0.200000" points="326.22,-270.43 331.6,-267.05 325.28,-266.34 326.22,-270.43"/>
</g>
<!-- public/sentence&#45;with&#45;spaces.js -->
<g id="node8" class="node">
<title>public/sentence&#45;with&#45;spaces.js</title>
<g id="a_node8"><a xlink:href="public/sentence-with-spaces.js" xlink:title="sentence&#45;with&#45;spaces.js">
<path fill="#ffffcc" stroke="black" d="M409.01,-327.62C409.01,-327.62 308.26,-327.62 308.26,-327.62 305.42,-327.62 302.59,-324.79 302.59,-321.95 302.59,-321.95 302.59,-316.29 302.59,-316.29 302.59,-313.45 305.42,-310.62 308.26,-310.62 308.26,-310.62 409.01,-310.62 409.01,-310.62 411.84,-310.62 414.68,-313.45 414.68,-316.29 414.68,-316.29 414.68,-321.95 414.68,-321.95 414.68,-324.79 411.84,-327.62 409.01,-327.62"/>
<text text-anchor="middle" x="358.63" y="-316.42" font-family="Helvetica,sans-Serif" font-size="9.00">sentence&#45;with&#45;spaces.js</text>
</a>
</g>
</g>
<!-- public/index.js&#45;&gt;public/sentence&#45;with&#45;spaces.js -->
<g id="edge3" class="edge">
<title>public/index.js&#45;&gt;public/sentence&#45;with&#45;spaces.js</title>
<path fill="none" stroke="#000000" stroke-width="2" stroke-opacity="0.200000" d="M256.4,-296.06C273.01,-299.84 294.95,-304.84 314.15,-309.21"/>
<polygon fill="#000000" fill-opacity="0.200000" stroke="#000000" stroke-width="2" stroke-opacity="0.200000" points="313.7,-311.26 320.01,-310.55 314.63,-307.17 313.7,-311.26"/>
</g>
<!-- public/shell.js -->
<g id="node9" class="node">
<title>public/shell.js</title>
<g id="a_node9"><a xlink:href="public/shell.js" xlink:title="shell.js">
<path fill="#ffffcc" stroke="black" d="M379.97,-298.62C379.97,-298.62 337.3,-298.62 337.3,-298.62 334.47,-298.62 331.63,-295.79 331.63,-292.95 331.63,-292.95 331.63,-287.29 331.63,-287.29 331.63,-284.45 334.47,-281.62 337.3,-281.62 337.3,-281.62 379.97,-281.62 379.97,-281.62 382.8,-281.62 385.63,-284.45 385.63,-287.29 385.63,-287.29 385.63,-292.95 385.63,-292.95 385.63,-295.79 382.8,-298.62 379.97,-298.62"/>
<text text-anchor="middle" x="358.63" y="-287.42" font-family="Helvetica,sans-Serif" font-size="9.00">shell.js</text>
</a>
</g>
</g>
<!-- public/index.js&#45;&gt;public/shell.js -->
<g id="edge4" class="edge">
<title>public/index.js&#45;&gt;public/shell.js</title>
<path fill="none" stroke="#000000" stroke-width="2" stroke-opacity="0.200000" d="M256.4,-290.12C276.39,-290.12 304.1,-290.12 325.47,-290.12"/>
<polygon fill="#000000" fill-opacity="0.200000" stroke="#000000" stroke-width="2" stroke-opacity="0.200000" points="325.6,-292.22 331.6,-290.12 325.6,-288.02 325.6,-292.22"/>
</g>
<!-- public/shell.js&#45;&gt;child_process -->
<g id="edge6" class="edge">
<title>public/shell.js&#45;&gt;child_process</title>
<path fill="none" stroke="#000000" stroke-dasharray="5,2" stroke-opacity="0.200000" d="M385.87,-289.97C398.34,-288.59 412.66,-284.95 422.66,-276.12 453.61,-248.8 462.03,-197.34 464.32,-172"/>
<polygon fill="#000000" fill-opacity="0.200000" stroke="#000000" stroke-opacity="0.200000" points="466.42,-172.01 464.79,-165.86 462.23,-171.68 466.42,-172.01"/>
</g>
<!-- public/internet&#45;connection.js -->
<g id="node10" class="node">
<title>public/internet&#45;connection.js</title>
<g id="a_node10"><a xlink:href="public/internet-connection.js" xlink:title="internet&#45;connection.js">
<path fill="#ccffcc" stroke="black" d="M274.21,-269.62C274.21,-269.62 184.45,-269.62 184.45,-269.62 181.62,-269.62 178.78,-266.79 178.78,-263.95 178.78,-263.95 178.78,-258.29 178.78,-258.29 178.78,-255.45 181.62,-252.62 184.45,-252.62 184.45,-252.62 274.21,-252.62 274.21,-252.62 277.05,-252.62 279.88,-255.45 279.88,-258.29 279.88,-258.29 279.88,-263.95 279.88,-263.95 279.88,-266.79 277.05,-269.62 274.21,-269.62"/>
<text text-anchor="middle" x="229.33" y="-258.42" font-family="Helvetica,sans-Serif" font-size="9.00">internet&#45;connection.js</text>
</a>
</g>
</g>
<!-- public/read&#45;files.js -->
<g id="node11" class="node">
<title>public/read&#45;files.js</title>
<g id="a_node11"><a xlink:href="public/read-files.js" xlink:title="read&#45;files.js">
<path fill="#ffffcc" stroke="black" d="M254.68,-124.62C254.68,-124.62 203.98,-124.62 203.98,-124.62 201.15,-124.62 198.32,-121.79 198.32,-118.95 198.32,-118.95 198.32,-113.29 198.32,-113.29 198.32,-110.45 201.15,-107.62 203.98,-107.62 203.98,-107.62 254.68,-107.62 254.68,-107.62 257.51,-107.62 260.35,-110.45 260.35,-113.29 260.35,-113.29 260.35,-118.95 260.35,-118.95 260.35,-121.79 257.51,-124.62 254.68,-124.62"/>
<text text-anchor="middle" x="229.33" y="-113.42" font-family="Helvetica,sans-Serif" font-size="9.00">read&#45;files.js</text>
</a>
</g>
</g>
<!-- public/read&#45;files.js&#45;&gt;fs -->
<g id="edge5" class="edge">
<title>public/read&#45;files.js&#45;&gt;fs</title>
<path fill="none" stroke="#000000" stroke-dasharray="5,2" stroke-opacity="0.200000" d="M260.4,-114.12C270.68,-112.08 281.6,-108.24 289.61,-101.12 301.7,-90.37 290.53,-77.88 302.61,-67.12 308.89,-61.53 317.09,-58.11 325.23,-56.04"/>
<polygon fill="#000000" fill-opacity="0.200000" stroke="#000000" stroke-opacity="0.200000" points="326,-58.02 331.42,-54.7 325.11,-53.92 326,-58.02"/>
</g>
<!-- public/responsiveVoiceBackup.js -->
<g id="node12" class="node">
<title>public/responsiveVoiceBackup.js</title>
<g id="a_node12"><a xlink:href="public/responsiveVoiceBackup.js" xlink:title="responsiveVoiceBackup.js">
<path fill="#ccffcc" stroke="black" d="M283.73,-211.62C283.73,-211.62 174.93,-211.62 174.93,-211.62 172.1,-211.62 169.27,-208.79 169.27,-205.95 169.27,-205.95 169.27,-200.29 169.27,-200.29 169.27,-197.45 172.1,-194.62 174.93,-194.62 174.93,-194.62 283.73,-194.62 283.73,-194.62 286.56,-194.62 289.4,-197.45 289.4,-200.29 289.4,-200.29 289.4,-205.95 289.4,-205.95 289.4,-208.79 286.56,-211.62 283.73,-211.62"/>
<text text-anchor="middle" x="229.33" y="-200.42" font-family="Helvetica,sans-Serif" font-size="9.00">responsiveVoiceBackup.js</text>
</a>
</g>
</g>
<!-- public/tfjs.js -->
<g id="node13" class="node">
<title>public/tfjs.js</title>
<g id="a_node13"><a xlink:href="public/tfjs.js" xlink:title="tfjs.js">
<path fill="#ffffcc" stroke="black" d="M250.66,-240.62C250.66,-240.62 208,-240.62 208,-240.62 205.16,-240.62 202.33,-237.79 202.33,-234.95 202.33,-234.95 202.33,-229.29 202.33,-229.29 202.33,-226.45 205.16,-223.62 208,-223.62 208,-223.62 250.66,-223.62 250.66,-223.62 253.5,-223.62 256.33,-226.45 256.33,-229.29 256.33,-229.29 256.33,-234.95 256.33,-234.95 256.33,-237.79 253.5,-240.62 250.66,-240.62"/>
<text text-anchor="middle" x="229.33" y="-229.42" font-family="Helvetica,sans-Serif" font-size="9.00">tfjs.js</text>
</a>
</g>
</g>
<!-- public/use&#45;ann.js -->
<g id="node14" class="node">
<title>public/use&#45;ann.js</title>
<g id="a_node14"><a xlink:href="public/use-ann.js" xlink:title="use&#45;ann.js">
<path fill="#ccffcc" stroke="black" d="M252.19,-153.62C252.19,-153.62 206.47,-153.62 206.47,-153.62 203.64,-153.62 200.81,-150.79 200.81,-147.95 200.81,-147.95 200.81,-142.29 200.81,-142.29 200.81,-139.45 203.64,-136.62 206.47,-136.62 206.47,-136.62 252.19,-136.62 252.19,-136.62 255.02,-136.62 257.86,-139.45 257.86,-142.29 257.86,-142.29 257.86,-147.95 257.86,-147.95 257.86,-150.79 255.02,-153.62 252.19,-153.62"/>
<text text-anchor="middle" x="229.33" y="-142.42" font-family="Helvetica,sans-Serif" font-size="9.00">use&#45;ann.js</text>
</a>
</g>
</g>
<!-- public/use&#45;db.js -->
<g id="node15" class="node">
<title>public/use&#45;db.js</title>
<g id="a_node15"><a xlink:href="public/use-db.js" xlink:title="use&#45;db.js">
<path fill="#ffffcc" stroke="black" d="M250.66,-182.62C250.66,-182.62 208,-182.62 208,-182.62 205.16,-182.62 202.33,-179.79 202.33,-176.95 202.33,-176.95 202.33,-171.29 202.33,-171.29 202.33,-168.45 205.16,-165.62 208,-165.62 208,-165.62 250.66,-165.62 250.66,-165.62 253.5,-165.62 256.33,-168.45 256.33,-171.29 256.33,-171.29 256.33,-176.95 256.33,-176.95 256.33,-179.79 253.5,-182.62 250.66,-182.62"/>
<text text-anchor="middle" x="229.33" y="-171.42" font-family="Helvetica,sans-Serif" font-size="9.00">use&#45;db.js</text>
</a>
</g>
</g>
<!-- public/watch&#45;dom&#45;changes.js -->
<g id="node16" class="node">
<title>public/watch&#45;dom&#45;changes.js</title>
<g id="a_node16"><a xlink:href="public/watch-dom-changes.js" xlink:title="watch&#45;dom&#45;changes.js">
<path fill="#ccffcc" stroke="black" d="M276.7,-95.62C276.7,-95.62 181.96,-95.62 181.96,-95.62 179.12,-95.62 176.29,-92.79 176.29,-89.95 176.29,-89.95 176.29,-84.29 176.29,-84.29 176.29,-81.45 179.12,-78.62 181.96,-78.62 181.96,-78.62 276.7,-78.62 276.7,-78.62 279.54,-78.62 282.37,-81.45 282.37,-84.29 282.37,-84.29 282.37,-89.95 282.37,-89.95 282.37,-92.79 279.54,-95.62 276.7,-95.62"/>
<text text-anchor="middle" x="229.33" y="-84.42" font-family="Helvetica,sans-Serif" font-size="9.00">watch&#45;dom&#45;changes.js</text>
</a>
</g>
</g>
<!-- server.js -->
<g id="node17" class="node">
<title>server.js</title>
<g id="a_node17"><a xlink:href="server.js" xlink:title="server.js">
<path fill="#ffffcc" stroke="black" d="M101.86,-124.62C101.86,-124.62 59.19,-124.62 59.19,-124.62 56.36,-124.62 53.52,-121.79 53.52,-118.95 53.52,-118.95 53.52,-113.29 53.52,-113.29 53.52,-110.45 56.36,-107.62 59.19,-107.62 59.19,-107.62 101.86,-107.62 101.86,-107.62 104.69,-107.62 107.52,-110.45 107.52,-113.29 107.52,-113.29 107.52,-118.95 107.52,-118.95 107.52,-121.79 104.69,-124.62 101.86,-124.62"/>
<text text-anchor="middle" x="80.52" y="-113.42" font-family="Helvetica,sans-Serif" font-size="9.00">server.js</text>
</a>
</g>
</g>
<!-- server.js&#45;&gt;child_process -->
<g id="edge11" class="edge">
<title>server.js&#45;&gt;child_process</title>
<path fill="none" stroke="#000000" stroke-dasharray="5,2" stroke-opacity="0.200000" d="M88.73,-107.17C101.48,-92.09 129.64,-61.99 161.05,-49.12 268.73,-5 327.53,28.91 422.66,-38.12 456.73,-62.13 463.64,-116.06 464.94,-142.26"/>
<polygon fill="#000000" fill-opacity="0.200000" stroke="#000000" stroke-opacity="0.200000" points="462.86,-142.66 465.17,-148.58 467.05,-142.51 462.86,-142.66"/>
</g>
<!-- server.js&#45;&gt;public/shell.js -->
<g id="edge8" class="edge">
<title>server.js&#45;&gt;public/shell.js</title>
<path fill="none" stroke="#000000" stroke-width="2" stroke-opacity="0.200000" d="M93.29,-107.58C128.28,-83.27 232.8,-18.81 289.61,-72.12 322.74,-103.2 273.61,-241.16 302.61,-276.12 308.29,-282.96 316.8,-286.72 325.43,-288.72"/>
<polygon fill="#000000" fill-opacity="0.200000" stroke="#000000" stroke-width="2" stroke-opacity="0.200000" points="325.11,-290.79 331.4,-289.84 325.89,-286.67 325.11,-290.79"/>
</g>
<!-- server.js&#45;&gt;public/read&#45;files.js -->
<g id="edge7" class="edge">
<title>server.js&#45;&gt;public/read&#45;files.js</title>
<path fill="none" stroke="#000000" stroke-width="2" stroke-opacity="0.200000" d="M107.77,-116.12C131.29,-116.12 166,-116.12 192.15,-116.12"/>
<polygon fill="#000000" fill-opacity="0.200000" stroke="#000000" stroke-width="2" stroke-opacity="0.200000" points="192.26,-118.22 198.26,-116.12 192.26,-114.02 192.26,-118.22"/>
</g>
<!-- server.js&#45;&gt;public/tfjs.js -->
<g id="edge9" class="edge">
<title>server.js&#45;&gt;public/tfjs.js</title>
<path fill="none" stroke="#000000" stroke-width="2" stroke-opacity="0.200000" d="M85.51,-124.62C95.29,-144.5 122.54,-194.15 161.05,-218.12 171.49,-224.62 184.42,-228.15 196.15,-230.06"/>
<polygon fill="#000000" fill-opacity="0.200000" stroke="#000000" stroke-width="2" stroke-opacity="0.200000" points="195.92,-232.15 202.16,-230.91 196.51,-227.99 195.92,-232.15"/>
</g>
<!-- server.js&#45;&gt;public/use&#45;db.js -->
<g id="edge10" class="edge">
<title>server.js&#45;&gt;public/use&#45;db.js</title>
<path fill="none" stroke="#000000" stroke-width="2" stroke-opacity="0.200000" d="M94.17,-124.7C109.4,-134.64 136.05,-150.84 161.05,-160.12 172.19,-164.25 184.84,-167.29 196.14,-169.45"/>
<polygon fill="#000000" fill-opacity="0.200000" stroke="#000000" stroke-width="2" stroke-opacity="0.200000" points="195.98,-171.56 202.26,-170.57 196.74,-167.43 195.98,-171.56"/>
</g>
<!-- tests/api&#45;search.test.js -->
<g id="node18" class="node">
<title>tests/api&#45;search.test.js</title>
<g id="a_node18"><a xlink:href="tests/api-search.test.js" xlink:title="api&#45;search.test.js">
<path fill="#ffffcc" stroke="black" d="M116.89,-436.62C116.89,-436.62 44.16,-436.62 44.16,-436.62 41.33,-436.62 38.5,-433.79 38.5,-430.95 38.5,-430.95 38.5,-425.29 38.5,-425.29 38.5,-422.45 41.33,-419.62 44.16,-419.62 44.16,-419.62 116.89,-419.62 116.89,-419.62 119.72,-419.62 122.55,-422.45 122.55,-425.29 122.55,-425.29 122.55,-430.95 122.55,-430.95 122.55,-433.79 119.72,-436.62 116.89,-436.62"/>
<text text-anchor="middle" x="80.52" y="-425.42" font-family="Helvetica,sans-Serif" font-size="9.00">api&#45;search.test.js</text>
</a>
</g>
</g>
<!-- tests/api&#45;search.test.js&#45;&gt;public/api&#45;search.js -->
<g id="edge12" class="edge">
<title>tests/api&#45;search.test.js&#45;&gt;public/api&#45;search.js</title>
<path fill="none" stroke="#000000" stroke-width="2" stroke-opacity="0.200000" d="M122.57,-432.76C166,-435.94 235.59,-435.98 289.61,-412.12 314.67,-401.06 336.27,-376.73 348.07,-361.46"/>
<polygon fill="#000000" fill-opacity="0.200000" stroke="#000000" stroke-width="2" stroke-opacity="0.200000" points="349.75,-362.72 351.69,-356.66 346.4,-360.19 349.75,-362.72"/>
</g>
<!-- tests/google.test.js -->
<g id="node19" class="node">
<title>tests/google.test.js</title>
<g id="a_node19"><a xlink:href="tests/google.test.js" xlink:title="google.test.js">
<path fill="#ffffcc" stroke="black" d="M109.39,-349.62C109.39,-349.62 51.66,-349.62 51.66,-349.62 48.82,-349.62 45.99,-346.79 45.99,-343.95 45.99,-343.95 45.99,-338.29 45.99,-338.29 45.99,-335.45 48.82,-332.62 51.66,-332.62 51.66,-332.62 109.39,-332.62 109.39,-332.62 112.22,-332.62 115.06,-335.45 115.06,-338.29 115.06,-338.29 115.06,-343.95 115.06,-343.95 115.06,-346.79 112.22,-349.62 109.39,-349.62"/>
<text text-anchor="middle" x="80.52" y="-338.42" font-family="Helvetica,sans-Serif" font-size="9.00">google.test.js</text>
</a>
</g>
</g>
<!-- tests/google.test.js&#45;&gt;public/google.js -->
<g id="edge13" class="edge">
<title>tests/google.test.js&#45;&gt;public/google.js</title>
<path fill="none" stroke="#000000" stroke-width="2" stroke-opacity="0.200000" d="M115.21,-336.07C139.45,-332.44 171.97,-327.57 195.92,-323.98"/>
<polygon fill="#000000" fill-opacity="0.200000" stroke="#000000" stroke-width="2" stroke-opacity="0.200000" points="196.5,-326.01 202.12,-323.05 195.88,-321.86 196.5,-326.01"/>
</g>
<!-- tests/sentence&#45;with&#45;spaces.test.js -->
<g id="node20" class="node">
<title>tests/sentence&#45;with&#45;spaces.test.js</title>
<g id="a_node20"><a xlink:href="tests/sentence-with-spaces.test.js" xlink:title="sentence&#45;with&#45;spaces.test.js">
<path fill="#ffffcc" stroke="black" d="M139.41,-407.62C139.41,-407.62 21.64,-407.62 21.64,-407.62 18.81,-407.62 15.98,-404.79 15.98,-401.95 15.98,-401.95 15.98,-396.29 15.98,-396.29 15.98,-393.45 18.81,-390.62 21.64,-390.62 21.64,-390.62 139.41,-390.62 139.41,-390.62 142.24,-390.62 145.07,-393.45 145.07,-396.29 145.07,-396.29 145.07,-401.95 145.07,-401.95 145.07,-404.79 142.24,-407.62 139.41,-407.62"/>
<text text-anchor="middle" x="80.52" y="-396.42" font-family="Helvetica,sans-Serif" font-size="9.00">sentence&#45;with&#45;spaces.test.js</text>
</a>
</g>
</g>
<!-- tests/sentence&#45;with&#45;spaces.test.js&#45;&gt;public/sentence&#45;with&#45;spaces.js -->
<g id="edge14" class="edge">
<title>tests/sentence&#45;with&#45;spaces.test.js&#45;&gt;public/sentence&#45;with&#45;spaces.js</title>
<path fill="none" stroke="#000000" stroke-width="2" stroke-opacity="0.200000" d="M145.14,-403.1C198.16,-405.02 268.33,-403.83 289.61,-386.12 307.92,-370.88 285.95,-351.14 302.61,-334.12 303.7,-333.01 304.87,-331.97 306.09,-331.01"/>
<polygon fill="#000000" fill-opacity="0.200000" stroke="#000000" stroke-width="2" stroke-opacity="0.200000" points="307.27,-332.75 311.1,-327.67 304.94,-329.26 307.27,-332.75"/>
</g>
<!-- tests/shell.test.js -->
<g id="node21" class="node">
<title>tests/shell.test.js</title>
<g id="a_node21"><a xlink:href="tests/shell.test.js" xlink:title="shell.test.js">
<path fill="#ffffcc" stroke="black" d="M104.88,-378.62C104.88,-378.62 56.17,-378.62 56.17,-378.62 53.34,-378.62 50.51,-375.79 50.51,-372.95 50.51,-372.95 50.51,-367.29 50.51,-367.29 50.51,-364.45 53.34,-361.62 56.17,-361.62 56.17,-361.62 104.88,-361.62 104.88,-361.62 107.71,-361.62 110.54,-364.45 110.54,-367.29 110.54,-367.29 110.54,-372.95 110.54,-372.95 110.54,-375.79 107.71,-378.62 104.88,-378.62"/>
<text text-anchor="middle" x="80.52" y="-367.42" font-family="Helvetica,sans-Serif" font-size="9.00">shell.test.js</text>
</a>
</g>
</g>
<!-- tests/shell.test.js&#45;&gt;public/shell.js -->
<g id="edge15" class="edge">
<title>tests/shell.test.js&#45;&gt;public/shell.js</title>
<path fill="none" stroke="#000000" stroke-width="2" stroke-opacity="0.200000" d="M110.61,-373.33C161.36,-378.27 263.17,-385.03 289.61,-363.12 309.95,-346.26 284.36,-324.22 302.61,-305.12 308.55,-298.9 316.8,-295.18 325.1,-292.97"/>
<polygon fill="#000000" fill-opacity="0.200000" stroke="#000000" stroke-width="2" stroke-opacity="0.200000" points="326.02,-294.91 331.42,-291.56 325.1,-290.81 326.02,-294.91"/>
</g>
<!-- tests/tfjs.test.js -->
<g id="node22" class="node">
<title>tests/tfjs.test.js</title>
<g id="a_node22"><a xlink:href="tests/tfjs.test.js" xlink:title="tfjs.test.js">
<path fill="#ffffcc" stroke="black" d="M101.86,-320.62C101.86,-320.62 59.19,-320.62 59.19,-320.62 56.36,-320.62 53.52,-317.79 53.52,-314.95 53.52,-314.95 53.52,-309.29 53.52,-309.29 53.52,-306.45 56.36,-303.62 59.19,-303.62 59.19,-303.62 101.86,-303.62 101.86,-303.62 104.69,-303.62 107.52,-306.45 107.52,-309.29 107.52,-309.29 107.52,-314.95 107.52,-314.95 107.52,-317.79 104.69,-320.62 101.86,-320.62"/>
<text text-anchor="middle" x="80.52" y="-309.42" font-family="Helvetica,sans-Serif" font-size="9.00">tfjs.test.js</text>
</a>
</g>
</g>
<!-- tests/tfjs.test.js&#45;&gt;public/tfjs.js -->
<g id="edge16" class="edge">
<title>tests/tfjs.test.js&#45;&gt;public/tfjs.js</title>
<path fill="none" stroke="#000000" stroke-width="2" stroke-opacity="0.200000" d="M89.42,-303.45C102.75,-289.36 131.22,-261.61 161.05,-247.12 171.86,-241.87 184.54,-238.43 195.96,-236.19"/>
<polygon fill="#000000" fill-opacity="0.200000" stroke="#000000" stroke-width="2" stroke-opacity="0.200000" points="196.63,-238.2 202.15,-235.06 195.87,-234.07 196.63,-238.2"/>
</g>
</g>
</svg>
