<?xml version="1.0" encoding="UTF-8" standalone="no"?>
<!DOCTYPE svg PUBLIC "-//W3C//DTD SVG 1.1//EN"
 "http://www.w3.org/Graphics/SVG/1.1/DTD/svg11.dtd">
<!-- Generated by graphviz version 2.43.0 (0)
 -->
<!-- Title: dependency&#45;cruiser output Pages: 1 -->
<svg width="271pt" height="112pt"
 viewBox="0.00 0.00 271.07 112.00" xmlns="http://www.w3.org/2000/svg" xmlns:xlink="http://www.w3.org/1999/xlink">
<g id="graph0" class="graph" transform="scale(1 1) rotate(0) translate(4 108)">
<title>dependency&#45;cruiser output</title>
<polygon fill="white" stroke="transparent" points="-4,4 -4,-108 267.07,-108 267.07,4 -4,4"/>
<!-- api&#45;search.js -->
<g id="node1" class="node">
<title>api&#45;search.js</title>
<g id="a_node1"><a xlink:href="api-search.js" xlink:title="api&#45;search.js">
<path fill="#ffffcc" stroke="black" d="M150.88,-104C150.88,-104 95.17,-104 95.17,-104 92.33,-104 89.5,-101.17 89.5,-98.33 89.5,-98.33 89.5,-92.67 89.5,-92.67 89.5,-89.83 92.33,-87 95.17,-87 95.17,-87 150.88,-87 150.88,-87 153.71,-87 156.54,-89.83 156.54,-92.67 156.54,-92.67 156.54,-98.33 156.54,-98.33 156.54,-101.17 153.71,-104 150.88,-104"/>
<text text-anchor="middle" x="123.02" y="-92.8" font-family="Helvetica,sans-Serif" font-size="9.00">api&#45;search.js</text>
</a>
</g>
</g>
<!-- child_process -->
<g id="node2" class="node">
<title>child_process</title>
<path fill="#ffffcc" stroke="grey" d="M257.42,-17C257.42,-17 197.69,-17 197.69,-17 194.86,-17 192.03,-14.17 192.03,-11.33 192.03,-11.33 192.03,-5.67 192.03,-5.67 192.03,-2.83 194.86,0 197.69,0 197.69,0 257.42,0 257.42,0 260.25,0 263.08,-2.83 263.08,-5.67 263.08,-5.67 263.08,-11.33 263.08,-11.33 263.08,-14.17 260.25,-17 257.42,-17"/>
<text text-anchor="middle" x="227.56" y="-5.8" font-family="Helvetica,sans-Serif" font-size="9.00" fill="grey">child_process</text>
</g>
<!-- index.js -->
<g id="node3" class="node">
<title>index.js</title>
<g id="a_node3"><a xlink:href="index.js" xlink:title="index.js">
<path fill="#ffffcc" stroke="black" d="M48.33,-60C48.33,-60 5.67,-60 5.67,-60 2.83,-60 0,-57.17 0,-54.33 0,-54.33 0,-48.67 0,-48.67 0,-45.83 2.83,-43 5.67,-43 5.67,-43 48.33,-43 48.33,-43 51.17,-43 54,-45.83 54,-48.67 54,-48.67 54,-54.33 54,-54.33 54,-57.17 51.17,-60 48.33,-60"/>
<text text-anchor="middle" x="27" y="-48.8" font-family="Helvetica,sans-Serif" font-size="9.00">index.js</text>
</a>
</g>
</g>
<!-- index.js&#45;&gt;api&#45;search.js -->
<g id="edge1" class="edge">
<title>index.js&#45;&gt;api&#45;search.js</title>
<path fill="none" stroke="#000000" stroke-width="2" stroke-opacity="0.200000" d="M36.9,-60.06C44.37,-66.81 55.63,-75.97 67,-81.5 72.08,-83.97 77.64,-86.03 83.21,-87.75"/>
<polygon fill="#000000" fill-opacity="0.200000" stroke="#000000" stroke-width="2" stroke-opacity="0.200000" points="82.89,-89.84 89.24,-89.48 84.05,-85.81 82.89,-89.84"/>
</g>
<!-- say.js -->
<g id="node4" class="node">
<title>say.js</title>
<g id="a_node4"><a xlink:href="say.js" xlink:title="say.js">
<path fill="#ffffcc" stroke="black" d="M144.35,-75C144.35,-75 101.69,-75 101.69,-75 98.85,-75 96.02,-72.17 96.02,-69.33 96.02,-69.33 96.02,-63.67 96.02,-63.67 96.02,-60.83 98.85,-58 101.69,-58 101.69,-58 144.35,-58 144.35,-58 147.19,-58 150.02,-60.83 150.02,-63.67 150.02,-63.67 150.02,-69.33 150.02,-69.33 150.02,-72.17 147.19,-75 144.35,-75"/>
<text text-anchor="middle" x="123.02" y="-63.8" font-family="Helvetica,sans-Serif" font-size="9.00">say.js</text>
</a>
</g>
</g>
<!-- index.js&#45;&gt;say.js -->
<g id="edge2" class="edge">
<title>index.js&#45;&gt;say.js</title>
<path fill="none" stroke="#000000" stroke-width="2" stroke-opacity="0.200000" d="M54.19,-55.68C65.3,-57.45 78.34,-59.53 90.01,-61.39"/>
<polygon fill="#000000" fill-opacity="0.200000" stroke="#000000" stroke-width="2" stroke-opacity="0.200000" points="89.72,-63.47 95.97,-62.34 90.38,-59.32 89.72,-63.47"/>
</g>
<!-- sentence&#45;with&#45;spaces.js -->
<g id="node5" class="node">
<title>sentence&#45;with&#45;spaces.js</title>
<g id="a_node5"><a xlink:href="sentence-with-spaces.js" xlink:title="sentence&#45;with&#45;spaces.js">
<path fill="#ffffcc" stroke="black" d="M173.4,-46C173.4,-46 72.65,-46 72.65,-46 69.81,-46 66.98,-43.17 66.98,-40.33 66.98,-40.33 66.98,-34.67 66.98,-34.67 66.98,-31.83 69.81,-29 72.65,-29 72.65,-29 173.4,-29 173.4,-29 176.23,-29 179.06,-31.83 179.06,-34.67 179.06,-34.67 179.06,-40.33 179.06,-40.33 179.06,-43.17 176.23,-46 173.4,-46"/>
<text text-anchor="middle" x="123.02" y="-34.8" font-family="Helvetica,sans-Serif" font-size="9.00">sentence&#45;with&#45;spaces.js</text>
</a>
</g>
</g>
<!-- index.js&#45;&gt;sentence&#45;with&#45;spaces.js -->
<g id="edge3" class="edge">
<title>index.js&#45;&gt;sentence&#45;with&#45;spaces.js</title>
<path fill="none" stroke="#000000" stroke-width="2" stroke-opacity="0.200000" d="M54.19,-47.6C56.33,-47.28 58.53,-46.95 60.79,-46.62"/>
<polygon fill="#000000" fill-opacity="0.200000" stroke="#000000" stroke-width="2" stroke-opacity="0.200000" points="61.23,-48.67 66.86,-45.71 60.62,-44.52 61.23,-48.67"/>
</g>
<!-- shell.js -->
<g id="node6" class="node">
<title>shell.js</title>
<g id="a_node6"><a xlink:href="shell.js" xlink:title="shell.js">
<path fill="#ffffcc" stroke="black" d="M144.35,-17C144.35,-17 101.69,-17 101.69,-17 98.85,-17 96.02,-14.17 96.02,-11.33 96.02,-11.33 96.02,-5.67 96.02,-5.67 96.02,-2.83 98.85,0 101.69,0 101.69,0 144.35,0 144.35,0 147.19,0 150.02,-2.83 150.02,-5.67 150.02,-5.67 150.02,-11.33 150.02,-11.33 150.02,-14.17 147.19,-17 144.35,-17"/>
<text text-anchor="middle" x="123.02" y="-5.8" font-family="Helvetica,sans-Serif" font-size="9.00">shell.js</text>
</a>
</g>
</g>
<!-- index.js&#45;&gt;shell.js -->
<g id="edge4" class="edge">
<title>index.js&#45;&gt;shell.js</title>
<path fill="none" stroke="#000000" stroke-width="2" stroke-opacity="0.200000" d="M37.96,-42.81C45.48,-36.65 56.31,-28.59 67,-23.5 74.19,-20.07 82.3,-17.32 90.04,-15.15"/>
<polygon fill="#000000" fill-opacity="0.200000" stroke="#000000" stroke-width="2" stroke-opacity="0.200000" points="90.6,-17.18 95.86,-13.61 89.53,-13.12 90.6,-17.18"/>
</g>
<!-- shell.js&#45;&gt;child_process -->
<g id="edge5" class="edge">
<title>shell.js&#45;&gt;child_process</title>
<path fill="none" stroke="#000000" stroke-dasharray="5,2" stroke-opacity="0.200000" d="M150.16,-8.5C160.97,-8.5 173.77,-8.5 185.76,-8.5"/>
<polygon fill="#000000" fill-opacity="0.200000" stroke="#000000" stroke-opacity="0.200000" points="185.95,-10.6 191.95,-8.5 185.95,-6.4 185.95,-10.6"/>
</g>
</g>
</svg>
